<svg width="477" height="406" viewBox="0 0 477 406" fill="none" xmlns="http://www.w3.org/2000/svg">
<path d="M261.406 104.84L221.563 95.9653C219.656 92.9658 218.586 91.2838 216.678 88.2833L225.501 48.6758C228.501 46.7686 230.182 45.699 233.182 43.7927L273.027 52.667C274.933 55.6666 276.003 57.3486 277.911 60.349L269.089 99.9566C266.088 101.863 264.406 102.932 261.406 104.84Z" fill="#3C2E88"/>
<path d="M263.109 99.1924L222.414 90.128L231.478 49.4324L272.174 58.4959L263.109 99.1924Z" fill="#4267B2"/>
<path d="M273.026 52.6611L272.174 58.4938L277.91 60.3431L273.026 52.6611Z" fill="#6C64AD"/>
<path d="M233.182 43.7927L231.479 49.4362L225.5 48.6758L233.182 43.7927Z" fill="#6C64AD"/>
<path d="M221.563 95.9633L222.414 90.1297L216.678 88.2812L221.563 95.9633Z" fill="#6C64AD"/>
<path d="M261.406 104.838L263.11 99.1943L269.089 99.9547L261.406 104.838Z" fill="#6C64AD"/>
<path d="M279.48 152.896L281.037 145.906C298.854 149.873 316.236 140.136 319.786 124.198C323.576 107.18 314.427 92.6678 297.538 88.9061L299.095 81.9153C319.767 86.5198 331.409 104.957 326.777 125.756C322.369 145.547 301.151 157.723 279.48 152.896Z" fill="#4267B2"/>
<path d="M294.444 72.2675C289.963 71.2697 285.513 72.9254 282.724 76.1878L288.539 77.4826C291.564 78.1563 293.47 81.155 292.797 84.1799C292.123 87.2049 289.124 89.1112 286.099 88.4375L280.284 87.1418C281.426 91.2794 284.752 94.667 289.233 95.6648C295.695 97.1042 302.098 93.0332 303.538 86.5724C304.976 80.1116 300.905 73.7069 294.444 72.2675Z" fill="#F38245"/>
<path d="M300.065 86.0668C300.266 85.1636 299.697 84.2682 298.794 84.0676C297.892 83.8661 296.997 84.4356 296.795 85.3379C296.594 86.2411 297.162 87.1364 298.066 87.3379C298.969 87.5385 299.864 86.9699 300.065 86.0668Z" fill="#3C2E88"/>
<path d="M285.985 160.584L279.155 159.063L283.271 140.582L290.101 142.104L285.985 160.584Z" fill="#3C2E88"/>
<path d="M280.797 167.787L273.967 166.265L281.63 131.86L288.459 133.382L280.797 167.787Z" fill="#4267B2"/>
<path d="M184.38 132.716C169.565 129.307 158.648 118.591 155.889 104.751C153.984 95.207 156.699 83.4522 163.148 73.3068C169.893 62.6962 179.62 55.4417 189.831 53.4058L191.233 60.429C182.928 62.0856 174.895 68.1802 169.192 77.15C163.708 85.7764 161.36 95.5705 162.912 103.35C165.114 114.39 173.956 122.968 185.987 125.736L184.38 132.716Z" fill="#4267B2"/>
<path d="M190.721 43.2741C195.086 40.8002 200.267 41.1103 204.224 43.6289L198.559 46.8396C195.612 48.5094 194.576 52.2527 196.247 55.1997C197.917 58.1467 201.66 59.1822 204.607 57.5124L210.272 54.3017C210.399 58.9912 208.004 63.5948 203.639 66.0678C197.344 69.636 189.35 67.4248 185.783 61.1305C182.215 54.8353 184.427 46.8414 190.721 43.2741Z" fill="#F38245"/>
<path d="M210.047 51.3245C208.4 52.3723 206.215 51.8852 205.168 50.2373C204.12 48.5895 204.606 46.4047 206.254 45.3578C207.903 44.3101 210.087 44.7971 211.135 46.4441C212.182 48.0919 211.695 50.2768 210.047 51.3245ZM207.849 41.2781L201.884 45.0705L202.185 52.134L208.453 55.4042L214.418 51.611L214.117 44.5483L207.849 41.2781Z" fill="#3C2E88"/>
<path d="M192.772 57.9842C192.973 57.081 192.404 56.1866 191.5 55.9851C190.598 55.7845 189.703 56.353 189.501 57.2562C189.3 58.1586 189.869 59.0539 190.772 59.2554C191.676 59.456 192.571 58.8874 192.772 57.9842Z" fill="#3C2E88"/>
<path d="M179.876 117.554L186.706 119.075L182.59 137.555L175.76 136.035L179.876 117.554Z" fill="#3C2E88"/>
<path d="M185.064 110.352L191.895 111.872L184.232 146.277L177.402 144.756L185.064 110.352Z" fill="#4267B2"/>
<path d="M253.335 208.136L185.029 192.923C181.76 187.78 179.926 184.896 176.657 179.752L191.78 111.851C196.924 108.582 199.808 106.748 204.952 103.479L273.256 118.692C276.527 123.836 278.36 126.719 281.63 131.863L266.506 199.764C261.362 203.033 258.478 204.867 253.335 208.136Z" fill="#F38245"/>
<path d="M256.258 198.459L186.49 182.921L202.029 113.153L271.796 128.692L256.258 198.459Z" fill="#F68D54"/>
<path d="M273.258 118.689L271.797 128.69L281.631 131.859L273.258 118.689Z" fill="#F68D54"/>
<path d="M204.951 103.479L202.029 113.154L191.78 111.851L204.951 103.479Z" fill="#F68D54"/>
<path d="M185.029 192.92L186.49 182.919L176.657 179.749L185.029 192.92Z" fill="#F68D54"/>
<path d="M253.336 208.132L256.258 198.456L266.506 199.759L253.336 208.132Z" fill="#F68D54"/>
<path d="M219.619 133.839C217.638 135.948 214.322 136.052 212.212 134.07C210.104 132.089 209.999 128.773 211.981 126.663C213.963 124.555 217.278 124.45 219.387 126.432C221.497 128.414 221.601 131.73 219.619 133.839ZM212.773 120.221L205.6 127.857L208.627 137.887L218.826 140.282L226 132.646L222.974 122.615L212.773 120.221Z" fill="#F4D37E"/>
<path d="M242.176 138.642C240.91 139.989 238.792 140.056 237.445 138.79C236.098 137.524 236.032 135.407 237.298 134.059C238.563 132.712 240.681 132.646 242.028 133.911C243.376 135.177 243.441 137.295 242.176 138.642ZM237.804 129.944L233.221 134.822L235.154 141.228L241.67 142.758L246.252 137.88L244.318 131.473L237.804 129.944Z" fill="#F4D37E"/>
<path d="M258.569 143.018C257.303 144.366 255.185 144.432 253.837 143.166C252.49 141.9 252.424 139.782 253.689 138.435C254.956 137.088 257.073 137.022 258.421 138.288C259.768 139.554 259.834 141.671 258.569 143.018ZM254.196 134.32L249.614 139.197L251.547 145.604L258.062 147.134L262.644 142.256L260.712 135.85L254.196 134.32Z" fill="#F4D37E"/>
<path d="M233.108 99.3591L249.478 103.005L248.599 106.954L232.228 103.308L233.108 99.3591Z" fill="#F38245"/>
<path d="M232.015 104.266L248.386 107.912L247.506 111.862L231.136 108.216L232.015 104.266Z" fill="#F38245"/>
<path d="M258.773 95.2588L227.98 88.4002L229.903 79.7668L260.695 86.6245L258.773 95.2588Z" fill="#3C2E88"/>
<path d="M256.912 93.5017L230.408 87.5989L231.752 81.5613L258.257 87.4649L256.912 93.5017Z" fill="#4267B2"/>
<path d="M232.588 86.4771L231.544 86.2449L232.44 82.2266L233.482 82.4596L232.588 86.4771Z" fill="#3C2E88"/>
<path d="M233.731 87.8321L232.689 87.5999L233.583 83.5815L234.627 83.8137L233.731 87.8321Z" fill="#3C2E88"/>
<path d="M235.344 87.0875L234.302 86.8553L235.197 82.8369L236.24 83.0691L235.344 87.0875Z" fill="#3C2E88"/>
<path d="M236.491 88.4485L235.448 88.2164L236.343 84.198L237.385 84.4301L236.491 88.4485Z" fill="#3C2E88"/>
<path d="M238.103 87.703L237.061 87.4709L237.956 83.4534L238.998 83.6855L238.103 87.703Z" fill="#3C2E88"/>
<path d="M239.247 89.0589L238.205 88.8267L239.099 84.8083L240.143 85.0405L239.247 89.0589Z" fill="#3C2E88"/>
<path d="M240.861 88.3195L239.818 88.0874L240.713 84.0698L241.756 84.302L240.861 88.3195Z" fill="#3C2E88"/>
<path d="M242.006 89.6745L240.962 89.4423L241.858 85.4248L242.9 85.657L242.006 89.6745Z" fill="#3C2E88"/>
<path d="M243.619 88.9298L242.577 88.6977L243.471 84.6802L244.514 84.9123L243.619 88.9298Z" fill="#3C2E88"/>
<path d="M244.763 90.2909L243.721 90.0588L244.615 86.0413L245.658 86.2734L244.763 90.2909Z" fill="#3C2E88"/>
<path d="M246.367 89.5463L245.325 89.3141L246.219 85.2966L247.262 85.5288L246.367 89.5463Z" fill="#3C2E88"/>
<path d="M247.512 90.9013L246.469 90.6691L247.364 86.6516L248.407 86.8838L247.512 90.9013Z" fill="#3C2E88"/>
<path d="M249.124 90.1566L248.082 89.9245L248.977 85.907L250.021 86.1391L249.124 90.1566Z" fill="#3C2E88"/>
<path d="M250.27 91.5178L249.228 91.2856L250.122 87.2681L251.166 87.5002L250.27 91.5178Z" fill="#3C2E88"/>
<path d="M251.883 90.774L250.839 90.541L251.735 86.5234L252.777 86.7565L251.883 90.774Z" fill="#3C2E88"/>
<path d="M253.029 92.1281L251.985 91.8959L252.88 87.8784L253.923 88.1106L253.029 92.1281Z" fill="#3C2E88"/>
<path d="M254.64 91.3896L253.598 91.1574L254.492 87.1399L255.536 87.372L254.64 91.3896Z" fill="#3C2E88"/>
<path d="M255.68 89.5478L256.766 89.7895L256.626 90.8198C256.755 90.7208 256.855 90.5789 256.893 90.408L257.113 89.419C257.199 89.0309 256.955 88.6454 256.567 88.5596L256.383 88.5184C255.994 88.4317 255.61 88.677 255.523 89.0651L255.303 90.0541C255.264 90.2258 255.294 90.3949 255.368 90.5394L255.68 89.5478Z" fill="#3C2E88"/>
<path d="M254.937 93.4927L255.189 92.8874L255.793 93.0214L255.765 93.6758L254.937 93.4927ZM256.623 89.9894L255.724 89.7888L254.501 93.8975L255.987 94.2286L256.623 89.9894Z" fill="#3C2E88"/>
<path d="M247.364 73.3643L240.625 80.0581L250.625 82.2859L247.364 73.3643Z" fill="#3C2E88"/>
<path d="M241.652 63.5562L235.679 67.353L234.689 65.7963L240.662 61.9995L241.652 63.5562Z" fill="#F4D37E"/>
<path d="M237.05 61.1938L240.848 67.1676L239.291 68.1575L235.493 62.1838L237.05 61.1938Z" fill="#F4D37E"/>
<path d="M239.296 59.6229C236.51 59.0026 233.739 60.7643 233.119 63.5493C232.498 66.3351 234.26 69.1051 237.044 69.7254C239.83 70.3456 242.601 68.5848 243.221 65.7998C243.841 63.014 242.08 60.2431 239.296 59.6229ZM236.914 70.3114C233.806 69.6194 231.84 66.5269 232.533 63.4187C233.225 60.3106 236.317 58.3456 239.425 59.0377C242.533 59.7297 244.498 62.8213 243.806 65.9304C243.114 69.0377 240.023 71.0035 236.914 70.3114Z" fill="#F1D6E8"/>
<path d="M239.648 58.0445C235.992 57.2306 232.354 59.5425 231.541 63.1982C230.727 66.8548 233.038 70.4921 236.694 71.306C240.351 72.1207 243.987 69.8088 244.802 66.1522C245.617 62.4965 243.305 58.8592 239.648 58.0445ZM236.565 71.8921C232.585 71.0055 230.069 67.0476 230.954 63.0686C231.841 59.0887 235.8 56.5727 239.779 57.4593C243.759 58.345 246.275 62.3029 245.388 66.2828C244.502 70.2617 240.544 72.7786 236.565 71.8921Z" fill="#F1D6E8"/>
<path d="M262.857 68.2804L256.884 72.0771L255.894 70.5204L261.867 66.7236L262.857 68.2804Z" fill="#F4D37E"/>
<path d="M258.255 65.918L262.053 71.8917L260.496 72.8816L256.699 66.9079L258.255 65.918Z" fill="#F4D37E"/>
<path d="M260.501 64.3469C257.716 63.7276 254.946 65.4884 254.326 68.2734C253.706 71.0592 255.466 73.8292 258.251 74.4494C261.036 75.0697 263.806 73.3088 264.428 70.5239C265.048 67.739 263.287 64.9681 260.501 64.3469ZM258.121 75.0355C255.013 74.3434 253.048 71.2519 253.74 68.1428C254.432 65.0355 257.523 63.0697 260.632 63.7617C263.74 64.4547 265.705 67.5454 265.013 70.6544C264.321 73.7626 261.229 75.7276 258.121 75.0355Z" fill="#F1D6E8"/>
<path d="M260.853 62.7692C257.197 61.9545 253.56 64.2664 252.746 67.923C251.932 71.5787 254.243 75.216 257.899 76.0299C261.556 76.8446 265.193 74.5327 266.007 70.877C266.822 67.2204 264.51 63.5831 260.853 62.7692ZM257.769 76.6159C253.79 75.7294 251.274 71.7714 252.16 67.7924C253.046 63.8126 257.005 61.2975 260.984 62.1831C264.963 63.0697 267.48 67.0276 266.593 71.0075C265.707 74.9865 261.749 77.5025 257.769 76.6159Z" fill="#F1D6E8"/>
<path d="M276.722 86.7419L273.743 86.0779L276.104 75.4761L279.084 76.1401L276.722 86.7419Z" fill="#3C2E88"/>
<path d="M274.215 90.9806L271.236 90.3174L275.631 70.5811L278.611 71.2451L274.215 90.9806Z" fill="#4267B2"/>
<path d="M217.837 62.5L220.817 63.164L218.456 73.765L215.475 73.1018L217.837 62.5Z" fill="#3C2E88"/>
<path d="M220.344 58.2642L223.324 58.9273L218.929 78.6636L215.948 77.9996L220.344 58.2642Z" fill="#4267B2"/>
<path d="M258.768 32.1303C258.724 32.1206 258.678 32.1101 258.632 32.1005C256.172 31.5784 253.642 31.6458 251.506 32.2888C251.267 32.3607 250.082 32.7505 250.29 33.3427C250.434 33.7571 251.137 34.0996 252.27 34.3107C254.949 34.8074 257.626 34.9546 260.223 34.7487C261.001 34.6857 261.883 34.5849 262.644 34.3151C262.514 34.0821 262.329 33.8438 262.072 33.609C261.359 32.9564 260.249 32.4597 258.768 32.1303ZM258.155 37.2411C257.513 37.0974 256.857 37.0352 256.269 36.994C253.924 36.8285 252.182 37.0194 251.607 37.5021C251.472 37.6169 251.408 37.7439 251.408 37.8911C251.493 38.1574 252.828 38.2932 253.544 38.3677C253.793 38.3922 254.027 38.4159 254.233 38.4439C256.742 38.7794 258.772 38.7076 260.29 38.231C259.954 37.9261 259.483 37.6555 258.928 37.4601C258.676 37.3707 258.417 37.2989 258.155 37.2411ZM255.686 40.4588C254.859 40.2748 253.869 40.3869 253.074 40.549C252.68 40.6296 252.429 40.8337 252.427 40.8977C252.556 41.0116 252.73 41.0449 252.888 41.0729C254.259 41.3042 255.665 41.3707 256.993 41.2674C256.901 41.129 256.79 41.0054 256.659 40.9003C256.388 40.6804 256.053 40.5403 255.686 40.4588ZM253.979 45.4321L252.852 45.1806C254.497 44.9502 256.432 44.0278 256.964 43.2104C257.272 42.74 257.353 42.245 257.207 41.7396C255.79 41.8631 254.28 41.7982 252.813 41.5495C252.58 41.51 252.32 41.454 252.124 41.298C251.871 41.0948 251.879 40.8802 251.905 40.7689C251.992 40.4185 252.499 40.1636 252.934 40.0751C254.784 39.6975 256.151 39.8543 257.005 40.5438C257.236 40.7304 257.421 40.9555 257.556 41.2139C257.563 41.2122 257.571 41.2113 257.579 41.2104C258.711 41.0781 259.531 40.8337 260.087 40.4632C260.736 40.0295 260.99 39.3821 260.735 38.8153C260.708 38.7566 260.677 38.6979 260.64 38.6392C259.023 39.1868 256.855 39.2831 254.178 38.924C253.978 38.8977 253.749 38.874 253.509 38.8495C252.311 38.7269 251.071 38.6033 250.882 37.9323C250.872 37.5897 250.993 37.3436 251.234 37.1395C252.174 36.3475 254.802 36.4053 256.286 36.5096C257.153 36.57 258.165 36.6769 259.102 37.0081C259.81 37.2577 260.406 37.6248 260.807 38.0435C260.936 37.9901 261.061 37.9349 261.18 37.8753C262.15 37.3909 262.797 36.5665 262.911 35.6712C262.943 35.4198 262.94 35.1106 262.84 34.7759C262.023 35.0615 261.103 35.1675 260.294 35.2323C257.644 35.4426 254.916 35.2928 252.186 34.7864C250.797 34.5236 249.996 34.0873 249.782 33.4706C249.547 32.8022 250.121 32.1872 251.318 31.8263C253.543 31.157 256.177 31.086 258.731 31.6274C260.364 31.9682 261.632 32.5332 262.444 33.2744C262.725 33.5319 262.951 33.814 263.118 34.1145C263.918 33.7036 264.432 33.0177 264.542 32.2003C264.67 31.2376 264.232 30.266 263.342 29.5328C262.201 28.5937 260.393 27.9822 258.381 27.8561L258.048 27.835L258.128 27.5451C258.562 25.9629 258.612 24.1951 258.659 22.4868C258.698 21.1149 258.735 19.8175 258.96 18.6462L259.487 18.7514C259.268 19.8876 259.232 21.1666 259.195 22.521C259.148 24.1548 259.101 25.8412 258.721 27.3961C260.725 27.5766 262.521 28.217 263.691 29.1798C264.703 30.0129 265.22 31.1719 265.073 32.2792C264.941 33.2717 264.308 34.0996 263.323 34.577C263.452 34.9537 263.493 35.348 263.442 35.7483C263.309 36.7926 262.565 37.7474 261.454 38.3028C261.348 38.3563 261.238 38.4071 261.126 38.4544C261.166 38.5184 261.2 38.5832 261.23 38.6489C261.578 39.4277 261.259 40.2941 260.416 40.8583C259.801 41.2691 258.924 41.5398 257.738 41.6844C257.9 42.2967 257.793 42.9117 257.428 43.4724C256.816 44.4106 255.527 45.143 253.979 45.4321Z" fill="#F38245"/>
<path d="M260.791 19.0505C260.964 18.2717 260.403 17.4842 259.537 17.2914C258.671 17.0987 257.827 17.5735 257.655 18.3523C257.481 19.1311 258.042 19.9195 258.908 20.1123C259.775 20.305 260.618 19.8302 260.791 19.0505Z" fill="#F38245"/>
<path d="M258.669 50.2279C259.374 47.0654 257.381 43.9309 254.218 43.2266C251.056 42.5214 247.92 44.5144 247.216 47.6777C246.512 50.8402 257.965 53.3913 258.669 50.2279Z" fill="#4267B2"/>
<path d="M297.672 34.303C296.959 36.2768 296.995 38.4458 297.11 40.1243C297.238 42.0026 297.588 44.3372 299.159 45.7319C299.963 46.445 301.241 46.7235 302.337 46.4239C303.136 46.2058 303.696 45.7126 303.914 45.0354C304.115 44.4169 304.024 43.724 303.907 43.1291C303.205 39.5137 300.842 36.19 297.672 34.303ZM288.407 38.6219C287.797 41.0775 288.053 43.7406 289.135 46.0315C289.711 47.2492 290.426 48.1112 291.262 48.5921C292.257 49.1651 293.486 49.144 294.248 48.5413C295.118 47.8545 295.277 46.5974 295.294 45.9088C295.366 43.0582 293.624 40.2855 291.061 39.1668C290.219 38.7998 289.315 38.6263 288.407 38.6219ZM282.523 49.1449C282.417 49.1388 282.316 49.0853 282.251 48.9916C280.478 46.4274 280.724 42.7069 282.822 40.3381C284.092 38.9058 285.944 38.0648 287.855 37.9281C287.873 37.8685 287.891 37.8089 287.91 37.7503C288.747 35.1134 290.942 32.4301 293.961 32.3784C294.992 32.3609 296.087 32.6596 297.319 33.2895C298.227 31.3762 299.774 29.9982 301.556 29.5461C303.6 29.0284 305.984 29.7581 307.779 31.4498C309.566 33.1361 310.543 35.4638 311.121 37.0687C312.033 39.5961 312.628 42.233 312.891 44.9066C312.911 45.1037 312.767 45.2789 312.57 45.2982C312.372 45.3201 312.198 45.1729 312.179 44.9776C311.921 42.3617 311.34 39.7827 310.448 37.3114C309.894 35.7757 308.964 33.5523 307.287 31.9719C305.668 30.4449 303.54 29.7827 301.732 30.2408C300.172 30.6359 298.762 31.9141 297.948 33.6337C301.38 35.6302 303.85 39.0862 304.61 42.9916C304.744 43.6775 304.846 44.4818 304.597 45.2562C304.301 46.1708 303.567 46.8304 302.527 47.1143C301.207 47.4761 299.663 47.1353 298.684 46.268C296.917 44.7008 296.534 42.1874 296.394 40.1725C296.274 38.3924 296.238 36.0796 297.038 33.9509C295.895 33.3587 294.895 33.0783 293.973 33.0941C291.346 33.1396 289.358 35.6118 288.611 37.9114C289.544 37.9333 290.478 38.1305 291.348 38.5098C294.171 39.7424 296.089 42.791 296.01 45.9263C295.975 47.3315 295.507 48.4599 294.693 49.1037C293.707 49.8825 292.151 49.9281 290.904 49.2132C289.94 48.657 289.127 47.6898 288.487 46.3372C287.366 43.9658 287.078 41.2159 287.662 38.6613C286.022 38.8348 284.45 39.5812 283.359 40.8129C281.503 42.9075 281.275 46.3214 282.839 48.5843C282.952 48.7463 282.911 48.9697 282.748 49.0818C282.68 49.13 282.6 49.1502 282.523 49.1449Z" fill="#4267B2"/>
<path d="M220.681 24.3458C220.649 24.3432 220.617 24.3423 220.583 24.344C220.229 24.3563 219.883 24.5359 219.591 24.7102C217.804 25.7764 216.476 27.6458 216.029 29.6826C217.183 29.6432 218.293 29.2183 219.148 28.8425C220.143 28.4054 221.342 27.7615 221.784 26.6542C222 26.1145 221.902 25.3865 221.548 24.8819C221.411 24.6875 221.124 24.373 220.681 24.3458ZM223.782 28.8232C223.424 28.8005 223.069 28.8898 222.841 28.9652C221.292 29.4803 220.137 30.9538 220.033 32.5499C220.001 33.0282 220.07 33.5127 220.223 33.97C221.638 33.7957 222.99 33.1421 223.996 32.1321C224.538 31.5872 224.86 31.0423 224.956 30.5105C225.065 29.8973 224.834 29.2788 224.395 29.0055C224.207 28.8881 223.994 28.8364 223.782 28.8232ZM223.431 37.3182C222.992 37.2911 222.555 37.1973 222.14 37.0309C221.084 36.6104 220.233 35.7562 219.749 34.7251C219.744 34.726 219.741 34.726 219.735 34.726C218.045 34.797 216.046 34.0786 215.385 32.3379C215.174 31.7816 215.11 31.1334 215.193 30.3616C213.965 30.2039 212.908 29.6064 212.297 28.7041C211.571 27.6274 211.494 26.0988 212.096 24.7137C212.69 23.3506 213.807 22.323 214.597 21.6695C215.833 20.6454 217.192 19.7772 218.64 19.0896C218.819 19.0055 219.033 19.0808 219.118 19.2595C219.203 19.4373 219.127 19.6511 218.948 19.7369C217.553 20.3992 216.243 21.235 215.054 22.2205C214.321 22.8276 213.285 23.7764 212.753 24.9993C212.248 26.1627 212.3 27.4277 212.891 28.3038C213.38 29.0265 214.279 29.5214 215.303 29.652C215.763 27.3524 217.202 25.3016 219.224 24.0944C219.572 23.8868 220.039 23.6458 220.558 23.6283C221.168 23.6134 221.744 23.9148 222.134 24.4702C222.627 25.1719 222.754 26.1566 222.449 26.9196C221.911 28.2687 220.555 29.0063 219.436 29.4987C218.486 29.9157 217.237 30.3896 215.909 30.4019C215.833 31.0755 215.881 31.6266 216.054 32.0839C216.558 33.4102 218.142 34.005 219.483 34.0138C219.344 33.5267 219.284 33.0151 219.317 32.5026C219.442 30.6244 220.798 28.8898 222.615 28.2854C223.447 28.0103 224.214 28.0488 224.774 28.3966C225.466 28.8285 225.822 29.7273 225.661 30.6358C225.54 31.3138 225.15 31.9875 224.504 32.6375C223.436 33.7098 222.017 34.4211 220.523 34.6515C220.946 35.4181 221.61 36.0497 222.405 36.3668C223.885 36.9547 225.756 36.4194 226.667 35.1456C226.783 34.9844 227.007 34.9485 227.167 35.0633C227.328 35.1772 227.366 35.4006 227.25 35.5626C226.395 36.7593 224.897 37.4093 223.431 37.3182Z" fill="#4267B2"/>
<path d="M77.6844 246.069C76.9792 244.739 76.2512 243.444 75.5066 242.188L77.6844 246.069Z" fill="#F4D37E"/>
<path d="M77.4663 254.284L75.4768 242.139C71.7703 235.9 67.6783 230.622 64.1619 226.756C61.5802 230.599 62.2819 241.08 62.2819 241.08C60.8031 230.38 61.4129 227.006 60.9424 223.5C55.3349 218.261 47.765 216.176 41.6126 213.526C45.9455 225.815 46.3082 229.035 46.3082 229.035C44.3134 221.574 40.9573 216.741 38.9564 212.447C23.412 206.466 16.4474 209.869 16.4474 209.869C17.4759 215.195 21.1938 226.766 22.4834 231.253C29.306 235.348 38.4273 238.997 38.4273 238.997C33.9061 238.337 27.7326 235.943 23.3165 234.035C25.3252 240.504 25.0633 239.431 27.6345 244.384C34.4956 248.834 47.6205 253.049 47.6205 253.049C42.1627 252.65 34.1785 249.921 29.7948 248.283C34.7234 256.628 40.5456 262.954 47.1982 268.361C53.8465 270.073 60.783 271.022 60.783 271.022C57.7326 271.348 53.7869 271.08 50.1111 270.635C57.8763 276.458 66.684 281.317 76.4422 286.791L85.7397 288.876L86.3091 275.413C85.8457 264.84 82.2898 254.779 77.7467 246.187L77.4663 254.284Z" fill="#F4D37E"/>
<path d="M72.6682 268.027C74.8286 270.847 76.9267 273.73 78.8767 276.733C80.8285 279.731 82.6192 282.877 83.9946 286.235L83.8509 286.303C82.387 283.011 80.5219 279.95 78.4974 277.038C76.4746 274.12 74.3073 271.324 72.0778 268.592C67.6319 263.112 62.9468 257.868 58.246 252.638C53.5486 247.404 48.7164 242.302 44.2127 236.838C41.9595 234.108 39.7369 231.344 37.6047 228.495C35.4636 225.653 33.4146 222.723 31.5109 219.685L31.6345 219.58C36.1119 225.061 40.7076 230.374 45.3497 235.656C50.0015 240.926 54.5359 246.334 59.1413 251.677C63.7344 257.033 68.3196 262.41 72.6682 268.027Z" fill="#FEF4F8"/>
<path d="M64.1525 290.356C64.2585 277.343 65.0995 271.863 64.1507 267.568C56.6667 262.008 48.5318 258.443 40.6439 256.211C47.2878 270.798 45.6461 281.107 45.6461 281.107C45.2905 270.551 40.17 260.343 37.2449 255.329C17.3903 250.586 0 253.796 0 253.796C1.83005 260.267 3.77575 266.153 5.8397 271.531C14.7079 275.447 26.3732 278.407 26.3732 278.407C20.7114 278.374 12.8244 276.466 7.16077 274.858C10.3224 282.584 13.7495 289.2 17.4481 294.935C26.4004 299.289 43.0776 302.252 43.0776 302.252C36.2839 302.711 26.1209 300.701 20.5274 299.425C27.4963 308.98 35.3605 315.861 44.156 321.446C52.5598 322.419 61.2388 322.388 61.2388 322.388C57.4998 323.328 52.5914 323.687 47.9965 323.775C58.2112 329.686 69.6146 334.21 82.2585 339.333L93.9782 340.309L93.2765 323.397C90.0316 298.039 80.3925 281.626 68.474 271.07C65.682 276.319 64.1525 290.356 64.1525 290.356Z" fill="#4267B2"/>
<path d="M91.3734 337.429C89.2184 333.575 86.5911 330.08 83.7825 326.797C80.9757 323.509 78.0015 320.398 74.9582 317.377C68.8855 311.315 62.5412 305.587 56.1794 299.88C49.8219 294.167 43.3103 288.644 37.1675 282.609C34.0944 279.597 31.0571 276.533 28.1207 273.349C25.1754 270.176 22.3344 266.877 19.6625 263.417L19.8035 263.263C25.9165 269.323 32.1557 275.151 38.4518 280.934C44.7567 286.699 50.9319 292.658 57.1868 298.523C63.4286 304.404 69.6634 310.316 75.6292 316.568C78.5964 319.711 81.4935 322.943 84.2197 326.352C86.9477 329.752 89.4917 333.366 91.5443 337.318L91.3734 337.429Z" fill="#6C64AD"/>
<path d="M367.932 180.201C355.102 180.201 344.703 169.8 344.703 156.972C344.703 144.143 355.102 133.743 367.932 133.743C380.761 133.743 391.161 144.143 391.161 156.972C391.161 169.8 380.761 180.201 367.932 180.201ZM410.883 147.647H405.165C404.239 143.934 402.772 140.435 400.852 137.238L404.897 133.193C406.239 131.852 406.239 129.676 404.897 128.334L396.57 120.007C395.228 118.665 393.052 118.665 391.71 120.007L387.666 124.052C384.469 122.131 380.969 120.666 377.256 119.738V114.02C377.256 112.122 375.717 110.583 373.819 110.583H362.044C360.146 110.583 358.607 112.122 358.607 114.02V119.738C354.894 120.666 351.395 122.131 348.198 124.052L344.154 120.007C342.811 118.665 340.635 118.665 339.293 120.007L330.967 128.334C329.625 129.676 329.625 131.852 330.967 133.193L335.012 137.238C333.091 140.435 331.625 143.934 330.699 147.647H324.98C323.082 147.647 321.544 149.186 321.544 151.084V162.859C321.544 164.758 323.082 166.296 324.98 166.296H330.699C331.625 170.01 333.091 173.509 335.012 176.705L330.967 180.75C329.625 182.092 329.625 184.268 330.967 185.609L339.293 193.936C340.635 195.279 342.811 195.279 344.154 193.936L348.198 189.892C351.395 191.812 354.894 193.278 358.607 194.205V199.924C358.607 201.821 360.146 203.36 362.044 203.36H373.819C375.717 203.36 377.256 201.821 377.256 199.924V194.205C380.969 193.278 384.469 191.812 387.666 189.892L391.71 193.936C393.052 195.279 395.228 195.279 396.57 193.936L404.897 185.609C406.239 184.268 406.239 182.092 404.897 180.75L400.852 176.705C402.772 173.509 404.239 170.01 405.165 166.296H410.883C412.782 166.296 414.32 164.758 414.32 162.859V151.084C414.32 149.186 412.782 147.647 410.883 147.647Z" fill="#4267B2"/>
<path d="M429.044 278.904C430.493 277.636 431.892 276.345 433.235 275.037L429.044 278.904Z" fill="#4267B2"/>
<path d="M418.606 280.413L433.289 274.985C439.959 268.483 445.288 261.66 449.025 255.944C443.338 253.22 430.337 256.5 430.337 256.5C443.361 252.096 447.816 252.196 452.088 250.773C456.878 241.862 457.049 230.932 458.393 221.838C444.292 230.539 440.347 231.751 440.347 231.751C449.115 227.347 454.121 221.641 458.893 217.926C461.387 195.107 454.83 186.224 454.83 186.224C448.442 188.821 435.046 196.514 429.802 199.287C426.852 209.626 425.211 223.047 425.211 223.047C424.575 216.648 425.59 207.581 426.562 201.052C419.05 205.257 420.32 204.659 414.904 209.306C411.518 219.778 410.464 238.86 410.464 238.86C409.193 231.224 410.044 219.578 410.684 213.154C401.757 221.81 395.664 231.258 391.002 241.652C391.002 251.225 392.06 261.027 392.06 261.027C390.658 256.881 389.713 251.365 389.079 246.181C384.253 258.205 380.983 271.458 377.248 286.163L377.637 299.482L394.814 297.302C408.009 294.33 419.549 287.193 428.918 279.016L418.606 280.413Z" fill="#4267B2"/>
<path d="M399.704 276.805C396.845 280.415 393.89 283.952 390.734 287.312C387.586 290.672 384.197 293.842 380.407 296.485L380.273 296.301C383.953 293.551 387.208 290.297 390.227 286.855C393.252 283.413 396.075 279.799 398.799 276.114C404.269 268.756 409.365 261.12 414.438 253.464C419.517 245.815 424.386 238.007 429.819 230.572C432.531 226.853 435.298 223.17 438.202 219.592C441.091 216.006 444.123 212.525 447.338 209.222L447.511 209.37C442.05 216.772 436.838 224.298 431.679 231.885C426.541 239.481 421.19 246.945 415.941 254.492C410.677 262.026 405.38 269.553 399.704 276.805Z" fill="#6C64AD"/>
<path d="M388.676 237.576C390.739 231.092 392.893 224.643 394.867 218.149C396.857 211.657 398.898 205.195 401.143 198.767L400.988 198.701C399.437 201.739 398.052 204.862 396.793 208.031C395.521 211.195 394.369 214.406 393.264 217.627C391.046 224.072 389.309 230.658 387.389 237.179C385.474 243.701 383.538 250.215 381.278 256.614C380.157 259.815 378.951 262.988 377.563 266.083C376.181 269.177 374.589 272.19 372.588 274.939L372.722 275.038C374.825 272.342 376.529 269.36 378.021 266.296C379.519 263.23 380.837 260.082 382.068 256.904C384.499 250.536 386.599 244.055 388.676 237.576ZM403.213 252.084C398.374 259.915 391.771 267.483 383.089 272.469L371.417 277.764L368.232 268.43C367.661 257.214 367.078 247.126 367.863 237.568C369.444 241.095 371.318 244.79 373.215 247.417C373.215 247.417 370.325 240.715 368.232 233.945C369.258 225.576 371.503 217.562 375.926 209.49C376.877 214.173 378.819 222.595 381.387 227.718C381.387 227.718 377.962 213.992 378.069 205.847C380.884 201.377 380.117 202.077 384.51 197.462C385.249 202.292 386.513 208.926 388.361 213.313C388.361 213.313 386.588 203.462 386.415 195.505C389.518 192.399 397.311 184.031 401.262 180.798C401.262 180.798 407.839 185.648 411.061 202.331C408.499 206 406.205 211.129 400.967 216.161C400.967 216.161 403.492 214.442 411.564 205.206C412.599 211.931 414.867 219.699 413.427 227.046C410.717 228.988 407.544 229.89 399.295 235.851C399.295 235.851 407.773 230.69 412.391 231.373C410.998 236.232 408.719 242.223 405.423 248.278L396.225 255.326L403.213 252.084ZM405.396 248.327C404.732 249.545 404.026 250.764 403.278 251.978L405.396 248.327Z" fill="#F68D54"/>
<path d="M414.56 316.97C427.049 321.024 432.042 323.584 436.496 323.869C444.368 317.542 450.539 309.916 455.343 302.15C439.065 304.844 429.695 299.965 429.695 299.965C439.975 302.779 451.526 300.391 457.336 298.779C468.588 278.965 471.352 259.381 471.352 259.381C464.509 259.378 458.187 259.679 452.316 260.26C445.559 268.566 438.784 280.154 438.784 280.154C440.721 274.104 445.212 266.24 448.668 260.666C440.166 261.711 432.645 263.374 425.879 265.596C418.673 273.859 410.204 290.811 410.204 290.811C412.051 283.401 417.407 273.133 420.519 267.532C408.975 272.097 399.704 278.431 391.365 286.153C387.599 294.852 384.707 304.151 384.707 304.151C385.061 299.864 386.369 294.502 387.831 289.557C378.702 298.7 370.506 309.534 361.317 321.516L356.432 333.764L372.947 338.134C398.451 342.341 417.495 336.995 431.669 327.435C427.556 322.857 414.56 316.97 414.56 316.97Z" fill="#F4D37E"/>
<path d="M360.086 331.844C364.521 330.705 368.77 328.952 372.875 326.939C376.987 324.931 380.981 322.691 384.914 320.35C392.795 315.686 400.445 310.629 408.081 305.548C415.719 300.474 423.23 295.179 431.107 290.432C435.042 288.055 439.013 285.731 443.067 283.553C447.113 281.361 451.245 279.32 455.475 277.509L455.575 277.706C447.686 282.413 439.973 287.326 432.287 292.312C424.614 297.315 416.8 302.119 409.047 307.039C401.284 311.937 393.494 316.82 385.467 321.312C381.442 323.536 377.355 325.658 373.157 327.544C368.965 329.433 364.629 331.061 360.134 332.06L360.086 331.844Z" fill="#FBEAB0"/>
<path d="M91.5433 202.193C71.0755 202.193 54.4833 185.601 54.4833 165.133C54.4833 144.666 71.0755 128.073 91.5433 128.073C112.011 128.073 128.602 144.666 128.602 165.133C128.602 185.601 112.011 202.193 91.5433 202.193ZM160.068 150.257H150.945C149.466 144.333 147.127 138.75 144.064 133.65L150.517 127.197C152.658 125.056 152.658 121.585 150.517 119.444L137.232 106.16C135.091 104.018 131.62 104.018 129.479 106.16L123.026 112.612C117.926 109.549 112.344 107.21 106.419 105.731V96.6077C106.419 93.5802 103.964 91.1255 100.936 91.1255H82.1496C79.1211 91.1255 76.6673 93.5802 76.6673 96.6077V105.731C70.7426 107.21 65.1596 109.549 60.0602 112.612L53.6073 106.16C51.4662 104.018 47.9954 104.018 45.8534 106.16L32.5691 119.444C30.4281 121.585 30.4281 125.056 32.5691 127.197L39.0221 133.65C35.9585 138.75 33.6195 144.333 32.1408 150.257H23.0177C19.9901 150.257 17.5354 152.712 17.5354 155.74V174.527C17.5354 177.555 19.9901 180.009 23.0177 180.009H32.1408C33.6195 185.934 35.9585 191.516 39.0221 196.616L32.5691 203.07C30.4281 205.21 30.4281 208.681 32.5691 210.822L45.8534 224.107C47.9954 226.248 51.4662 226.248 53.6073 224.107L60.0602 217.655C65.1596 220.718 70.7426 223.057 76.6673 224.536V233.658C76.6673 236.687 79.1211 239.141 82.1496 239.141H100.936C103.964 239.141 106.419 236.687 106.419 233.658V224.536C112.344 223.057 117.926 220.718 123.026 217.655L129.479 224.107C131.62 226.248 135.091 226.248 137.232 224.107L150.517 210.822C152.658 208.681 152.658 205.21 150.517 203.07L144.064 196.616C147.127 191.516 149.466 185.934 150.945 180.009H160.068C163.096 180.009 165.55 177.555 165.55 174.527V155.74C165.55 152.712 163.096 150.257 160.068 150.257Z" fill="#F68D54"/>
<path d="M378.09 340.311H71.4813V162.568C71.4813 154.194 78.2698 147.406 86.643 147.406H362.93C371.302 147.406 378.09 154.194 378.09 162.568V340.311Z" fill="#3C2E88"/>
<path d="M363.537 161.536H86.0352V323.66H363.537V161.536Z" fill="#4267B2"/>
<path d="M434.346 387.89H15.2267L71.4817 340.314H378.091L434.346 387.89Z" fill="#4267B2"/>
<path d="M419.379 405.978H30.1939C21.9276 405.978 15.2267 399.277 15.2267 391.011V387.891H434.346V391.011C434.346 399.277 427.646 405.978 419.379 405.978Z" fill="#3C2E88"/>
<path d="M111.408 353.178H94.4368C93.9094 353.178 93.6527 352.533 94.0356 352.17L99.333 347.157C99.4407 347.053 99.5844 346.997 99.7342 346.997H115.946C116.453 346.997 116.719 347.597 116.379 347.972L111.842 352.987C111.731 353.108 111.574 353.178 111.408 353.178Z" fill="#FEF4F8"/>
<path d="M138.28 353.178H121.143C120.647 353.178 120.378 352.599 120.696 352.219L124.9 347.206C125.011 347.073 125.174 346.997 125.347 346.997H141.726C142.196 346.997 142.473 347.524 142.208 347.912L138.762 352.925C138.653 353.083 138.473 353.178 138.28 353.178Z" fill="#FEF4F8"/>
<path d="M165.136 353.178H147.861C147.403 353.178 147.124 352.675 147.365 352.287L150.476 347.272C150.582 347.101 150.77 346.997 150.971 346.997H167.489C167.917 346.997 168.2 347.441 168.018 347.828L165.665 352.842C165.57 353.047 165.362 353.178 165.136 353.178Z" fill="#FEF4F8"/>
<path d="M191.973 353.178H174.596C174.183 353.178 173.899 352.76 174.054 352.377L176.073 347.362C176.162 347.142 176.377 346.997 176.615 346.997H193.232C193.612 346.997 193.891 347.354 193.798 347.722L192.54 352.737C192.474 352.996 192.24 353.178 191.973 353.178Z" fill="#FEF4F8"/>
<path d="M218.783 353.178H201.353C200.988 353.178 200.713 352.847 200.779 352.489L201.705 347.474C201.756 347.197 201.997 346.997 202.279 346.997H218.951C219.28 346.997 219.545 347.27 219.534 347.6L219.367 352.613C219.356 352.928 219.099 353.178 218.783 353.178Z" fill="#FEF4F8"/>
<path d="M245.566 353.178H228.136C227.821 353.178 227.562 352.928 227.552 352.613L227.385 347.6C227.374 347.27 227.638 346.997 227.969 346.997H244.64C244.922 346.997 245.163 347.197 245.214 347.474L246.14 352.489C246.206 352.847 245.931 353.178 245.566 353.178Z" fill="#FEF4F8"/>
<path d="M272.324 353.178H254.947C254.679 353.178 254.446 352.996 254.381 352.737L253.122 347.722C253.029 347.354 253.307 346.997 253.688 346.997H270.305C270.544 346.997 270.758 347.142 270.847 347.362L272.866 352.377C273.02 352.76 272.738 353.178 272.324 353.178Z" fill="#FEF4F8"/>
<path d="M299.058 353.178H281.782C281.556 353.178 281.35 353.047 281.253 352.842L278.901 347.828C278.719 347.441 279.002 346.997 279.43 346.997H295.947C296.148 346.997 296.336 347.101 296.442 347.272L299.554 352.287C299.795 352.675 299.516 353.178 299.058 353.178Z" fill="#FEF4F8"/>
<path d="M325.778 353.178H308.64C308.447 353.178 308.267 353.083 308.158 352.925L304.714 347.912C304.447 347.524 304.724 346.997 305.194 346.997H321.573C321.745 346.997 321.909 347.073 322.02 347.206L326.225 352.219C326.544 352.599 326.273 353.178 325.778 353.178Z" fill="#FEF4F8"/>
<path d="M352.483 353.178H335.511C335.346 353.178 335.189 353.108 335.078 352.987L330.541 347.972C330.2 347.597 330.467 346.997 330.973 346.997H347.185C347.334 346.997 347.478 347.053 347.587 347.157L352.884 352.17C353.267 352.533 353.01 353.178 352.483 353.178Z" fill="#FEF4F8"/>
<path d="M102.93 362.548H84.5405C84.0123 362.548 83.7556 361.904 84.1393 361.541L90.4363 355.58C90.544 355.478 90.6886 355.42 90.8375 355.42H108.324C108.831 355.42 109.098 356.021 108.757 356.397L103.363 362.356C103.253 362.478 103.095 362.548 102.93 362.548Z" fill="#FEF4F8"/>
<path d="M131.844 362.548H113.288C112.792 362.548 112.522 361.969 112.84 361.589L117.838 355.629C117.949 355.497 118.113 355.42 118.286 355.42H135.939C136.409 355.42 136.687 355.947 136.421 356.335L132.324 362.295C132.216 362.454 132.036 362.548 131.844 362.548Z" fill="#FEF4F8"/>
<path d="M160.742 362.548H142.047C141.59 362.548 141.31 362.045 141.552 361.656L145.25 355.697C145.356 355.524 145.545 355.42 145.747 355.42H163.538C163.966 355.42 164.249 355.865 164.067 356.252L161.27 362.212C161.174 362.418 160.968 362.548 160.742 362.548Z" fill="#FEF4F8"/>
<path d="M93.0589 373.452H73.0186C72.4904 373.452 72.2337 372.807 72.6174 372.444L80.1618 365.303C80.2696 365.2 80.4133 365.143 80.5631 365.143H99.5223C100.028 365.143 100.295 365.743 99.9551 366.119L93.4917 373.26C93.3804 373.382 93.2236 373.452 93.0589 373.452Z" fill="#FEF4F8"/>
<path d="M124.35 373.452H104.143C103.648 373.452 103.377 372.873 103.696 372.494L109.685 365.351C109.796 365.22 109.959 365.143 110.131 365.143H129.257C129.728 365.143 130.004 365.669 129.738 366.057L124.831 373.199C124.723 373.357 124.543 373.452 124.35 373.452Z" fill="#FEF4F8"/>
<path d="M155.625 373.452H135.28C134.822 373.452 134.543 372.949 134.784 372.56L139.216 365.419C139.323 365.247 139.51 365.143 139.712 365.143H158.975C159.403 365.143 159.686 365.588 159.504 365.975L156.154 373.116C156.057 373.322 155.851 373.452 155.625 373.452Z" fill="#FEF4F8"/>
<path d="M189.62 362.548H170.824C170.411 362.548 170.129 362.13 170.281 361.746L172.682 355.786C172.77 355.565 172.985 355.42 173.224 355.42H191.117C191.496 355.42 191.776 355.777 191.683 356.146L190.185 362.107C190.12 362.366 189.886 362.548 189.62 362.548Z" fill="#FEF4F8"/>
<path d="M280.485 373.452H166.434C166.019 373.452 165.738 373.034 165.892 372.65L168.766 365.509C168.857 365.288 169.071 365.143 169.309 365.143H277.611C277.849 365.143 278.064 365.288 278.152 365.509L281.028 372.65C281.182 373.034 280.9 373.452 280.485 373.452Z" fill="#FEF4F8"/>
<path d="M218.471 362.548H199.623C199.259 362.548 198.983 362.217 199.048 361.858L200.15 355.898C200.2 355.621 200.442 355.42 200.723 355.42H218.67C219 355.42 219.265 355.694 219.253 356.024L219.055 361.983C219.045 362.299 218.786 362.548 218.471 362.548Z" fill="#FEF4F8"/>
<path d="M247.296 362.548H228.448C228.134 362.548 227.875 362.299 227.865 361.983L227.666 356.024C227.656 355.694 227.919 355.42 228.249 355.42H246.196C246.477 355.42 246.718 355.621 246.77 355.898L247.871 361.858C247.937 362.217 247.662 362.548 247.296 362.548Z" fill="#FEF4F8"/>
<path d="M276.095 362.548H257.3C257.032 362.548 256.799 362.366 256.733 362.107L255.236 356.146C255.144 355.777 255.423 355.42 255.803 355.42H273.694C273.934 355.42 274.147 355.565 274.237 355.786L276.636 361.746C276.791 362.13 276.508 362.548 276.095 362.548Z" fill="#FEF4F8"/>
<path d="M304.871 362.548H286.177C285.951 362.548 285.745 362.418 285.649 362.212L282.851 356.252C282.67 355.865 282.953 355.42 283.381 355.42H301.173C301.375 355.42 301.562 355.524 301.669 355.697L305.368 361.656C305.608 362.045 305.329 362.548 304.871 362.548Z" fill="#FEF4F8"/>
<path d="M333.631 362.548H315.077C314.884 362.548 314.704 362.454 314.595 362.295L310.499 356.335C310.233 355.947 310.511 355.42 310.981 355.42H328.634C328.808 355.42 328.971 355.497 329.082 355.629L334.079 361.589C334.398 361.969 334.128 362.548 333.631 362.548Z" fill="#FEF4F8"/>
<path d="M338.874 368.799H319.372C319.179 368.799 318.999 368.703 318.891 368.545L317.182 366.057C316.914 365.669 317.193 365.143 317.663 365.143H336.788C336.961 365.143 337.125 365.22 337.236 365.351L339.321 367.839C339.64 368.219 339.37 368.799 338.874 368.799Z" fill="#FEF4F8"/>
<path d="M342.776 373.454H322.569C322.377 373.454 322.197 373.36 322.089 373.201L320.178 370.421C319.912 370.034 320.19 369.507 320.66 369.507H340.445C340.618 369.507 340.781 369.583 340.892 369.716L343.223 372.496C343.542 372.875 343.271 373.454 342.776 373.454Z" fill="#FEF4F8"/>
<path d="M373.9 373.454H353.86C353.696 373.454 353.538 373.384 353.427 373.262L350.912 370.483C350.572 370.107 350.839 369.507 351.345 369.507H370.965C371.113 369.507 371.257 369.565 371.366 369.667L374.302 372.446C374.685 372.809 374.429 373.454 373.9 373.454Z" fill="#FEF4F8"/>
<path d="M311.64 373.454H291.295C291.068 373.454 290.863 373.324 290.766 373.118L289.462 370.339C289.28 369.952 289.564 369.507 289.991 369.507H309.915C310.117 369.507 310.304 369.612 310.411 369.783L312.136 372.562C312.377 372.951 312.097 373.454 311.64 373.454Z" fill="#FEF4F8"/>
<path d="M362.379 362.548H343.99C343.824 362.548 343.666 362.478 343.556 362.356L338.161 356.397C337.822 356.021 338.089 355.42 338.594 355.42H356.082C356.231 355.42 356.374 355.478 356.483 355.58L362.78 361.541C363.163 361.904 362.906 362.548 362.379 362.548Z" fill="#FEF4F8"/>
<path d="M308.01 240.505V210.003L288.85 240.505H308.01ZM331.299 246.426C331.299 248.105 330.746 249.512 329.647 250.646C328.545 251.782 326.947 252.349 324.857 252.349H321.719V261.232C321.719 266.069 319.242 268.487 314.286 268.487C310.1 268.487 308.01 265.873 308.01 260.639V252.349H280.427C274.04 252.349 270.847 250.622 270.847 247.166C270.847 245.785 271.369 244.23 272.416 242.503C273.462 240.776 274.316 239.418 274.976 238.431L296.778 204.674C298.539 202.208 300.384 200.379 302.311 199.195C304.237 198.01 306.467 197.418 309.001 197.418C313.073 197.418 316.211 198.455 318.416 200.527C320.617 202.6 321.719 206.057 321.719 210.892V240.505H324.857C326.947 240.505 328.545 241.096 329.647 242.28C330.746 243.465 331.299 244.849 331.299 246.426Z" fill="#FEF4F8"/>
<path d="M155.436 240.505V210.003L136.277 240.505H155.436ZM178.726 246.426C178.726 248.105 178.173 249.512 177.074 250.646C175.972 251.782 174.375 252.349 172.284 252.349H169.147V261.232C169.147 266.069 166.667 268.487 161.713 268.487C157.528 268.487 155.436 265.873 155.436 260.639V252.349H127.854C121.467 252.349 118.274 250.622 118.274 247.166C118.274 245.785 118.796 244.23 119.844 242.503C120.889 240.776 121.743 239.418 122.404 238.431L144.206 204.674C145.966 202.208 147.811 200.379 149.739 199.195C151.664 198.01 153.894 197.418 156.428 197.418C160.5 197.418 163.638 198.455 165.843 200.527C168.043 202.6 169.147 206.057 169.147 210.892V240.505H172.284C174.375 240.505 175.972 241.096 177.074 242.28C178.173 243.465 178.726 244.849 178.726 246.426Z" fill="#FEF4F8"/>
<path d="M219.983 250.869C210.133 250.869 202.148 242.883 202.148 233.034C202.148 223.184 210.133 215.199 219.983 215.199C229.832 215.199 237.817 223.184 237.817 233.034C237.817 242.883 229.832 250.869 219.983 250.869ZM252.96 225.875H248.57C247.858 223.023 246.732 220.337 245.258 217.883L248.362 214.777C249.393 213.748 249.393 212.076 248.362 211.047L241.971 204.653C240.939 203.622 239.27 203.622 238.239 204.653L235.133 207.759C232.679 206.284 229.992 205.159 227.142 204.447V200.057C227.142 198.6 225.96 197.418 224.503 197.418H215.462C214.005 197.418 212.824 198.6 212.824 200.057V204.447C209.972 205.159 207.286 206.284 204.832 207.759L201.726 204.653C200.696 203.622 199.025 203.622 197.994 204.653L191.602 211.047C190.571 212.076 190.571 213.748 191.602 214.777L194.706 217.883C193.233 220.337 192.107 223.023 191.395 225.875H187.005C185.547 225.875 184.367 227.056 184.367 228.513V237.554C184.367 239.011 185.547 240.193 187.005 240.193H191.395C192.107 243.044 193.233 245.73 194.706 248.185L191.602 251.29C190.571 252.321 190.571 253.991 191.602 255.021L197.994 261.415C199.025 262.444 200.696 262.444 201.726 261.415L204.832 258.309C207.286 259.784 209.972 260.909 212.824 261.621V266.011C212.824 267.468 214.005 268.649 215.462 268.649H224.503C225.96 268.649 227.142 267.468 227.142 266.011V261.621C229.992 260.909 232.679 259.783 235.133 258.309L238.239 261.415C239.27 262.444 240.939 262.444 241.971 261.415L248.362 255.021C249.393 253.991 249.393 252.321 248.362 251.29L245.258 248.185C246.732 245.73 247.858 243.044 248.57 240.193H252.96C254.417 240.193 255.598 239.011 255.598 237.554V228.513C255.598 227.056 254.417 225.875 252.96 225.875Z" fill="#FEF4F8"/>
<path d="M264.482 215.722C259.321 215.264 255.51 210.708 255.968 205.548C256.426 200.387 260.982 196.574 266.143 197.032C271.304 197.491 275.116 202.047 274.657 207.208C274.199 212.368 269.643 216.181 264.482 215.722ZM282.926 204.162L280.625 203.958C280.384 202.431 279.92 200.97 279.261 199.616L281.032 198.134C281.621 197.641 281.698 196.766 281.207 196.178L278.155 192.531C277.663 191.943 276.788 191.866 276.2 192.357L274.428 193.839C273.211 192.953 271.856 192.238 270.395 191.732L270.599 189.432C270.667 188.669 270.103 187.995 269.34 187.927L264.602 187.505C263.838 187.438 263.165 188.002 263.097 188.765L262.892 191.066C261.365 191.306 259.906 191.771 258.551 192.429L257.068 190.657C256.576 190.07 255.701 189.992 255.113 190.483L251.466 193.535C250.877 194.028 250.801 194.903 251.293 195.491L252.775 197.262C251.888 198.48 251.173 199.835 250.667 201.295L248.367 201.091C247.604 201.024 246.93 201.587 246.862 202.351L246.441 207.088C246.374 207.852 246.937 208.525 247.701 208.594L250.001 208.798C250.241 210.325 250.706 211.784 251.364 213.139L249.592 214.622C249.004 215.114 248.926 215.989 249.418 216.577L252.471 220.224C252.962 220.812 253.837 220.89 254.425 220.397L256.198 218.916C257.414 219.802 258.77 220.517 260.231 221.023L260.027 223.323C259.958 224.086 260.523 224.761 261.286 224.828L266.023 225.249C266.787 225.318 267.461 224.753 267.528 223.99L267.733 221.689C269.26 221.449 270.72 220.984 272.075 220.326L273.557 222.099C274.049 222.686 274.925 222.764 275.512 222.272L279.159 219.22C279.747 218.728 279.824 217.852 279.333 217.265L277.851 215.493C278.737 214.276 279.453 212.92 279.958 211.459L282.258 211.664C283.022 211.732 283.696 211.167 283.764 210.404L284.184 205.668C284.252 204.904 283.689 204.23 282.926 204.162Z" fill="#FEF4F8"/>
<path d="M5.94025 5.98145L51.6862 13.7248L48.0367 29.0897L5.94025 5.98145Z" fill="#3C2E88"/>
<path d="M5.94025 5.98145L44.2697 17.6135L48.0367 29.0897L5.94025 5.98145Z" fill="#4267B2"/>
<path d="M5.94025 5.97977L62.8961 5.0354L51.6862 13.7231L5.94025 5.97977Z" fill="#4267B2"/>
<path d="M5.94025 5.98145L44.2697 17.6135L30.0454 27.0967L5.94025 5.98145Z" fill="#4267B2"/>
<path d="M476.108 164.248L439.993 154.718L436.986 168.026L476.108 164.248Z" fill="#3C2E88"/>
<path d="M476.108 164.25L443.953 160.303L436.986 168.028L476.108 164.25Z" fill="#4267B2"/>
<path d="M476.109 164.25L435.045 144.073L439.995 154.72L476.109 164.25Z" fill="#4267B2"/>
<path d="M476.108 164.25L443.953 160.303L450.801 172.602L476.108 164.25Z" fill="#4267B2"/>
<path d="M58.481 32.5546C58.2514 32.5546 58.0228 32.4582 57.8607 32.2698C57.4069 31.7416 56.9628 31.1976 56.5423 30.6509C56.2663 30.2935 56.3329 29.7801 56.6912 29.5051C57.0478 29.2273 57.5602 29.2939 57.8379 29.6531C58.2462 30.1831 58.6676 30.7 59.1003 31.2037C59.3947 31.5462 59.3561 32.0622 59.0136 32.3557C58.8594 32.4897 58.6702 32.5546 58.481 32.5546Z" fill="#4267B2"/>
<path d="M125.37 1.98768C124.967 1.98768 124.615 1.68895 124.56 1.27721C124.501 0.83043 124.815 0.419567 125.263 0.35912C126.641 0.176028 128.036 0.054258 129.411 0.00081947C129.856 -0.0193295 130.242 0.334591 130.26 0.785752C130.277 1.23691 129.927 1.61712 129.475 1.63464C128.152 1.68632 126.807 1.80284 125.479 1.98067C125.442 1.98505 125.406 1.98768 125.37 1.98768ZM137.595 2.11295C137.552 2.11295 137.508 2.11033 137.465 2.10332C136.159 1.89482 134.819 1.7494 133.483 1.67143C133.032 1.64515 132.687 1.25881 132.714 0.808529C132.741 0.357368 133.123 0.0183403 133.577 0.0393652C134.968 0.119961 136.364 0.27064 137.723 0.488774C138.169 0.559734 138.473 0.979357 138.402 1.42526C138.338 1.82736 137.99 2.11295 137.595 2.11295ZM117.407 3.80459C117.062 3.80459 116.742 3.5847 116.63 3.24042C116.491 2.81028 116.726 2.34861 117.155 2.20932C118.476 1.78006 119.826 1.40687 121.166 1.10113C121.606 0.997754 122.045 1.27546 122.145 1.71611C122.246 2.15588 121.971 2.5939 121.53 2.69465C120.237 2.98987 118.935 3.34992 117.66 3.76429C117.576 3.79145 117.491 3.80459 117.407 3.80459ZM145.409 4.43884C145.293 4.43884 145.175 4.41431 145.063 4.36263C143.908 3.82299 142.66 3.3543 141.352 2.96885C140.919 2.84094 140.672 2.38628 140.798 1.95351C140.927 1.52163 141.384 1.27283 141.814 1.40073C143.2 1.80897 144.526 2.30656 145.755 2.88037C146.164 3.07222 146.34 3.55842 146.15 3.96753C146.011 4.26451 145.716 4.43884 145.409 4.43884ZM109.896 7.01178C109.604 7.01178 109.322 6.85584 109.175 6.58076C108.961 6.18216 109.111 5.68808 109.509 5.47432C110.725 4.82255 111.987 4.21545 113.259 3.67231C113.675 3.49447 114.155 3.68808 114.332 4.10332C114.509 4.51856 114.317 4.99776 113.902 5.17647C112.674 5.70034 111.455 6.28554 110.282 6.91453C110.159 6.98111 110.026 7.01178 109.896 7.01178ZM151.918 9.28072C151.681 9.28072 151.446 9.17823 151.285 8.98024C150.507 8.02798 149.554 7.14055 148.455 6.34336C148.091 6.07704 148.01 5.56631 148.275 5.201C148.54 4.83569 149.051 4.75422 149.417 5.01966C150.629 5.90096 151.683 6.88563 152.551 7.94564C152.836 8.29518 152.784 8.80941 152.434 9.09588C152.283 9.2194 152.1 9.28072 151.918 9.28072ZM103.079 11.5102C102.839 11.5102 102.601 11.4051 102.44 11.2036C102.158 10.8506 102.214 10.3364 102.567 10.0543C103.643 9.19312 104.776 8.36964 105.934 7.60573C106.311 7.35869 106.819 7.46118 107.066 7.83963C107.315 8.21633 107.211 8.72268 106.834 8.97148C105.717 9.70648 104.626 10.501 103.589 11.3307C103.438 11.4516 103.258 11.5102 103.079 11.5102ZM154.748 16.7901C154.312 16.7901 153.95 16.4459 153.931 16.007C153.891 15.0118 153.745 14.0639 153.501 13.1914C153.413 12.876 153.311 12.5676 153.198 12.2671C153.039 11.844 153.252 11.3727 153.675 11.2141C154.098 11.0538 154.57 11.2685 154.728 11.6907C154.858 12.0359 154.975 12.3889 155.075 12.7507C155.353 13.7442 155.519 14.8173 155.566 15.9386C155.584 16.3889 155.235 16.77 154.783 16.7893C154.771 16.7901 154.76 16.7901 154.748 16.7901ZM97.2154 17.1949C97.0288 17.1949 96.8413 17.1309 96.688 17.0013C96.3428 16.7087 96.2999 16.1927 96.5925 15.8493C97.48 14.8024 98.4383 13.7783 99.4414 12.8068C99.7655 12.4932 100.283 12.5002 100.598 12.8243C100.911 13.1502 100.903 13.6671 100.579 13.9807C99.614 14.9163 98.6924 15.9001 97.84 16.9058C97.6788 17.0968 97.4475 17.1949 97.2154 17.1949ZM92.5899 23.922C92.4576 23.922 92.3236 23.8905 92.1983 23.8221C91.8023 23.6057 91.6569 23.1082 91.8742 22.7122C92.5294 21.5164 93.2461 20.3469 94.0065 19.2361L94.0608 19.1563C94.3183 18.7858 94.8273 18.6929 95.1979 18.9513C95.5693 19.2089 95.6613 19.7179 95.4046 20.0884L95.3599 20.1533C94.6258 21.2255 93.9373 22.3486 93.3083 23.498C93.1593 23.7696 92.879 23.922 92.5899 23.922ZM153.461 24.8243C153.377 24.8243 153.291 24.8121 153.206 24.784C152.777 24.6439 152.543 24.1813 152.685 23.7529C153.033 22.6903 153.318 21.6014 153.533 20.5159C153.573 20.3127 153.611 20.1103 153.646 19.9062C153.721 19.4612 154.142 19.1695 154.588 19.2369C155.033 19.3131 155.333 19.7354 155.258 20.1795C155.22 20.3994 155.18 20.6167 155.137 20.8331C154.91 21.9824 154.607 23.1371 154.238 24.2619C154.125 24.6071 153.805 24.8243 153.461 24.8243ZM89.3845 31.4323C89.3021 31.4323 89.2189 31.4209 89.1357 31.3938C88.7055 31.2571 88.4681 30.7972 88.6057 30.3662C89.0279 29.0407 89.5159 27.7266 90.0546 26.4608C90.2325 26.0464 90.7116 25.8528 91.1269 26.0297C91.543 26.2076 91.7358 26.6868 91.5588 27.1029C91.0393 28.3206 90.5697 29.5856 90.1624 30.8629C90.052 31.2107 89.7305 31.4323 89.3845 31.4323ZM149.896 32.1577C149.742 32.1577 149.586 32.1147 149.448 32.0236C149.071 31.7757 148.965 31.2685 149.214 30.8918C149.95 29.7713 150.614 28.6071 151.188 27.4332C151.385 27.0267 151.872 26.8559 152.282 27.0565C152.687 27.2545 152.855 27.7442 152.657 28.1498C152.053 29.3859 151.354 30.6106 150.58 31.7888C150.424 32.0289 150.162 32.1577 149.896 32.1577ZM64.3989 38.1778C64.2228 38.1778 64.0458 38.1209 63.896 38.0044C62.7949 37.145 61.7322 36.2312 60.7379 35.2886C60.4103 34.9776 60.3962 34.4608 60.7072 34.1323C61.0165 33.8055 61.5351 33.7906 61.8627 34.1025C62.8194 35.0083 63.8417 35.8878 64.9026 36.7157C65.2583 36.9934 65.3214 37.5068 65.0445 37.8633C64.8825 38.0701 64.6424 38.1778 64.3989 38.1778ZM144.654 38.4117C144.438 38.4117 144.222 38.3276 144.062 38.1594C143.75 37.8327 143.762 37.3158 144.089 37.003C145.06 36.0753 145.982 35.095 146.827 34.0902C147.117 33.7442 147.633 33.7004 147.978 33.9903C148.325 34.2812 148.37 34.7972 148.079 35.1423C147.195 36.1927 146.233 37.2168 145.217 38.1866C145.059 38.3372 144.856 38.4117 144.654 38.4117ZM87.6306 39.4086C87.5965 39.4086 87.5614 39.406 87.5264 39.4025C87.0787 39.3456 86.7616 38.9365 86.8185 38.4879C86.9929 37.1134 87.2311 35.7337 87.5272 34.3872C87.6236 33.9465 88.0625 33.6706 88.5005 33.7643C88.9412 33.8607 89.2206 34.297 89.1234 34.7385C88.8387 36.0368 88.6083 37.3675 88.441 38.6938C88.3884 39.1064 88.0362 39.4086 87.6306 39.4086ZM71.2522 42.6167C71.1216 42.6167 70.9893 42.5852 70.8667 42.5186C69.6332 41.8581 68.4287 41.1493 67.2881 40.4126C66.9087 40.1673 66.7992 39.6618 67.0445 39.2825C67.2898 38.9023 67.7953 38.7945 68.1746 39.039C69.2793 39.7521 70.4444 40.4371 71.6394 41.0784C72.0371 41.2921 72.186 41.7871 71.9731 42.1857C71.826 42.4599 71.5439 42.6167 71.2522 42.6167ZM138.2 43.4157C137.929 43.4157 137.662 43.2799 137.507 43.0311C137.268 42.6491 137.384 42.1445 137.766 41.9054C138.9 41.1949 140.006 40.424 141.053 39.6128C141.408 39.3377 141.922 39.4008 142.2 39.7591C142.476 40.1156 142.41 40.629 142.054 40.9067C140.965 41.7503 139.813 42.5528 138.634 43.2904C138.499 43.3754 138.348 43.4157 138.2 43.4157ZM78.7125 45.9465C78.6188 45.9465 78.5233 45.9308 78.4304 45.8957C77.119 45.4139 75.8277 44.8909 74.5916 44.3416C74.179 44.1577 73.9942 43.675 74.1773 43.2624C74.3612 42.848 74.8448 42.6631 75.2565 42.8471C76.4593 43.3815 77.7165 43.8913 78.9946 44.3618C79.4177 44.5168 79.6359 44.9873 79.4799 45.4104C79.3582 45.7415 79.0454 45.9465 78.7125 45.9465ZM130.889 47.053C130.561 47.053 130.252 46.8541 130.127 46.53C129.964 46.1095 130.172 45.6355 130.594 45.4726C131.338 45.1844 132.073 44.8786 132.777 44.5642C133.278 44.3408 133.776 44.1069 134.268 43.8616C134.674 43.6601 135.164 43.8256 135.364 44.2295C135.566 44.6342 135.4 45.1248 134.996 45.3263C134.483 45.5804 133.965 45.8239 133.445 46.0569C132.716 46.3828 131.954 46.6999 131.184 46.9978C131.087 47.0355 130.987 47.053 130.889 47.053ZM86.5391 48.3048C86.4751 48.3048 86.4103 48.2978 86.3455 48.2821C84.9885 47.9536 83.6464 47.59 82.356 47.2028C81.9241 47.0723 81.6779 46.6167 81.8084 46.1848C81.9381 45.7521 82.3928 45.5076 82.8264 45.6364C84.0169 45.9938 85.253 46.3311 86.5049 46.6386C86.4672 45.8835 86.4488 45.1178 86.4488 44.3583C86.4488 43.7836 86.4594 43.2098 86.4804 42.6351C86.497 42.1848 86.8781 41.816 87.3275 41.8493C87.7787 41.8659 88.1308 42.2453 88.1151 42.6964C88.094 43.2492 88.0835 43.8046 88.0835 44.3583C88.0835 45.1423 88.1046 45.9343 88.1449 46.7113C88.1694 47.1616 87.8225 47.5471 87.3713 47.5707C87.3652 47.5707 87.3582 47.5707 87.3512 47.5716C87.3477 47.6075 87.3415 47.6443 87.3319 47.6802C87.2417 48.0543 86.9079 48.3048 86.5391 48.3048ZM123.055 49.3727C122.678 49.3727 122.339 49.1108 122.257 48.7262C122.162 48.2856 122.443 47.8511 122.884 47.7564C124.21 47.4709 125.523 47.1371 126.786 46.7648C127.22 46.6342 127.674 46.883 127.802 47.3167C127.93 47.7503 127.683 48.205 127.25 48.3329C125.946 48.7175 124.593 49.0609 123.228 49.3543C123.17 49.3666 123.112 49.3727 123.055 49.3727ZM94.5741 49.8353C94.5356 49.8353 94.4961 49.8327 94.4576 49.8265C93.0752 49.6294 91.7042 49.4016 90.384 49.1511C89.9407 49.0679 89.649 48.6395 89.7331 48.1953C89.8172 47.7529 90.2438 47.4638 90.6889 47.5453C91.9845 47.7915 93.331 48.0149 94.6871 48.2076C95.1348 48.2716 95.4458 48.6859 95.381 49.1327C95.324 49.5401 94.9736 49.8353 94.5741 49.8353ZM114.967 50.5563C114.546 50.5563 114.19 50.2339 114.154 49.8073C114.116 49.3578 114.451 48.9619 114.9 48.9242C116.266 48.8094 117.617 48.6561 118.914 48.4678C119.356 48.3951 119.775 48.7122 119.84 49.1599C119.905 49.6058 119.596 50.021 119.148 50.0858C117.819 50.2786 116.436 50.4363 115.037 50.5536C115.014 50.5554 114.99 50.5563 114.967 50.5563ZM102.713 50.6474C102.695 50.6474 102.679 50.6465 102.662 50.6456C101.735 50.5896 100.812 50.5221 99.89 50.4433C99.4449 50.4056 98.999 50.3644 98.554 50.3206C98.1037 50.2751 97.776 49.8756 97.8207 49.4262C97.8645 48.9768 98.264 48.6491 98.7143 48.6929C99.1532 48.7376 99.5912 48.777 100.028 48.8147C100.937 48.8918 101.848 48.9584 102.761 49.0144C103.211 49.0416 103.555 49.4297 103.526 49.8791C103.501 50.3127 103.141 50.6474 102.713 50.6474ZM108.395 50.8226C107.858 50.8226 107.319 50.8173 106.782 50.8077C106.33 50.7998 105.971 50.4275 105.979 49.9763C105.987 49.5234 106.359 49.1493 106.812 49.173C108.162 49.1967 109.512 49.1914 110.861 49.1502C111.299 49.1599 111.689 49.4928 111.702 49.9439C111.716 50.3951 111.362 50.7718 110.91 50.7858C110.073 50.8103 109.234 50.8226 108.395 50.8226ZM88.4856 55.6566C88.116 55.6566 87.7804 55.4034 87.6919 55.0276C87.3731 53.689 87.112 52.3127 86.9149 50.9382C86.851 50.4914 87.1619 50.0762 87.6087 50.0131C88.0537 49.9509 88.4699 50.2593 88.5338 50.7069C88.723 52.0324 88.9753 53.3596 89.282 54.65C89.3862 55.0889 89.1155 55.5296 88.6757 55.6338C88.6127 55.6487 88.5487 55.6566 88.4856 55.6566ZM91.1182 63.3876C90.8063 63.3876 90.5093 63.2089 90.3726 62.9067C89.805 61.6513 89.2907 60.3469 88.8439 59.0293C88.6985 58.6018 88.9272 58.1375 89.3555 57.9921C89.7813 57.8467 90.2465 58.0762 90.3919 58.5037C90.822 59.7705 91.317 61.0258 91.8619 62.233C92.0485 62.6448 91.8654 63.1283 91.4537 63.3149C91.345 63.364 91.2303 63.3876 91.1182 63.3876ZM95.2101 70.452C94.957 70.452 94.7073 70.3346 94.547 70.1139C93.9539 69.293 93.3836 68.4424 92.8545 67.583C92.6574 67.2624 92.4646 66.94 92.2763 66.615C92.0503 66.2251 92.1834 65.724 92.5741 65.498C92.9648 65.2711 93.4659 65.4043 93.6911 65.7959C93.8715 66.1077 94.0573 66.4179 94.2474 66.7262C94.7546 67.5497 95.3021 68.3671 95.8715 69.1546C96.137 69.5199 96.0546 70.0315 95.6893 70.2961C95.5439 70.4021 95.3766 70.452 95.2101 70.452ZM100.624 76.5642C100.423 76.5642 100.225 76.4915 100.066 76.3443C99.0481 75.3964 98.0695 74.3942 97.1567 73.364C96.8562 73.0267 96.8877 72.5099 97.2259 72.2111C97.5632 71.9106 98.08 71.9404 98.3788 72.2803C99.2574 73.2703 100.2 74.2357 101.181 75.1485C101.512 75.456 101.53 75.9728 101.222 76.3031C101.06 76.4766 100.842 76.5642 100.624 76.5642ZM107.087 81.555C106.937 81.555 106.785 81.5138 106.649 81.428C105.476 80.6816 104.33 79.8774 103.241 79.0372C102.884 78.7613 102.819 78.2479 103.094 77.8896C103.37 77.5331 103.884 77.4682 104.241 77.7424C105.291 78.5537 106.396 79.329 107.526 80.0473C107.907 80.2908 108.02 80.7946 107.778 81.1765C107.622 81.4209 107.356 81.555 107.087 81.555ZM114.343 85.3079C114.239 85.3079 114.134 85.2887 114.033 85.2475C112.754 84.7236 111.483 84.1358 110.256 83.5024C109.855 83.2948 109.697 82.8016 109.906 82.4004C110.113 82 110.604 81.8441 111.007 82.0491C112.191 82.6614 113.418 83.2282 114.652 83.7337C115.071 83.9054 115.271 84.3828 115.099 84.8007C114.97 85.1161 114.664 85.3079 114.343 85.3079ZM122.15 87.7092C122.095 87.7092 122.037 87.7039 121.981 87.6916C120.633 87.4078 119.277 87.0565 117.951 86.6483C117.519 86.5151 117.278 86.0578 117.411 85.6259C117.543 85.1941 117.999 84.9514 118.432 85.0854C119.71 85.4796 121.017 85.8178 122.317 86.092C122.759 86.1857 123.043 86.6185 122.949 87.0609C122.868 87.4455 122.529 87.7092 122.15 87.7092ZM130.263 88.6386H130.248C128.875 88.6132 127.476 88.5204 126.091 88.3609C125.642 88.3093 125.321 87.9036 125.372 87.4551C125.424 87.0066 125.833 86.6824 126.278 86.7376C127.611 86.8901 128.957 86.9794 130.277 87.004C130.729 87.0118 131.088 87.3842 131.08 87.8362C131.073 88.2821 130.708 88.6386 130.263 88.6386Z" fill="#4267B2"/>
<path d="M134.42 88.5016C133.999 88.5016 133.642 88.1801 133.606 87.7526C133.568 87.3031 133.903 86.908 134.353 86.8704C135.019 86.8143 135.683 86.7425 136.346 86.6522C136.789 86.5953 137.205 86.9054 137.266 87.3531C137.326 87.7999 137.013 88.2125 136.565 88.2729C135.875 88.3658 135.182 88.4411 134.489 88.4989C134.466 88.5016 134.442 88.5016 134.42 88.5016Z" fill="#4267B2"/>
<path d="M147.113 278.882H149.179L155.7 289.341V278.882H157.361V291.793H155.401L148.783 281.343V291.793H147.113V278.882ZM161.492 282.38V288.629C161.492 289.109 161.568 289.502 161.721 289.806C162.002 290.369 162.526 290.65 163.294 290.65C164.396 290.65 165.146 290.158 165.544 289.174C165.761 288.646 165.869 287.923 165.869 287.003V282.38H167.451V291.793H165.957L165.975 290.404C165.77 290.761 165.515 291.063 165.21 291.309C164.607 291.802 163.874 292.048 163.013 292.048C161.671 292.048 160.757 291.599 160.271 290.703C160.007 290.222 159.875 289.581 159.875 288.778V282.38H161.492ZM176.152 289.288C176.152 289.745 176.319 290.105 176.653 290.369C176.987 290.633 177.383 290.764 177.84 290.764C178.397 290.764 178.936 290.635 179.457 290.378C180.336 289.95 180.776 289.25 180.776 288.277V287.003C180.582 287.126 180.333 287.228 180.028 287.31C179.724 287.392 179.425 287.451 179.132 287.486L178.174 287.609C177.6 287.685 177.169 287.805 176.882 287.969C176.396 288.245 176.152 288.684 176.152 289.288ZM179.984 286.089C180.348 286.042 180.591 285.889 180.714 285.632C180.784 285.491 180.819 285.289 180.819 285.025C180.819 284.486 180.626 284.096 180.239 283.856C179.859 283.61 179.311 283.487 178.596 283.487C177.77 283.487 177.184 283.71 176.838 284.155C176.645 284.401 176.519 284.767 176.46 285.254H174.984C175.013 284.094 175.388 283.288 176.109 282.837C176.835 282.38 177.676 282.151 178.631 282.151C179.738 282.151 180.638 282.362 181.329 282.784C182.015 283.206 182.358 283.862 182.358 284.753V290.176C182.358 290.34 182.39 290.471 182.454 290.571C182.525 290.671 182.668 290.72 182.885 290.72C182.955 290.72 183.034 290.718 183.122 290.712C183.21 290.7 183.304 290.685 183.403 290.668V291.837C183.157 291.907 182.97 291.951 182.841 291.969C182.712 291.986 182.536 291.995 182.314 291.995C181.769 291.995 181.373 291.802 181.127 291.415C180.998 291.21 180.907 290.92 180.855 290.545C180.532 290.967 180.069 291.333 179.466 291.643C178.862 291.954 178.197 292.109 177.471 292.109C176.598 292.109 175.883 291.845 175.326 291.318C174.776 290.785 174.5 290.12 174.5 289.323C174.5 288.45 174.773 287.773 175.318 287.293C175.862 286.812 176.577 286.516 177.462 286.405L179.984 286.089ZM184.959 282.38H186.524V283.716C186.899 283.253 187.238 282.916 187.543 282.705C188.065 282.347 188.656 282.169 189.318 282.169C190.068 282.169 190.672 282.353 191.129 282.722C191.387 282.933 191.621 283.244 191.832 283.654C192.184 283.15 192.597 282.778 193.071 282.538C193.546 282.292 194.079 282.169 194.671 282.169C195.937 282.169 196.798 282.626 197.255 283.54C197.501 284.032 197.624 284.694 197.624 285.526V291.793H195.981V285.254C195.981 284.627 195.822 284.196 195.506 283.962C195.195 283.727 194.815 283.61 194.363 283.61C193.742 283.61 193.206 283.818 192.755 284.234C192.31 284.65 192.087 285.344 192.087 286.317V291.793H190.479V285.649C190.479 285.01 190.402 284.545 190.25 284.252C190.01 283.812 189.562 283.593 188.905 283.593C188.308 283.593 187.763 283.824 187.271 284.287C186.784 284.75 186.541 285.588 186.541 286.801V291.793H184.959V282.38ZM208.285 282.213C209.024 282.213 209.668 282.394 210.219 282.758C210.518 282.963 210.822 283.261 211.133 283.654V282.468H212.592V291.028C212.592 292.223 212.416 293.167 212.065 293.858C211.408 295.135 210.169 295.774 208.347 295.774C207.333 295.774 206.481 295.546 205.789 295.089C205.098 294.637 204.711 293.928 204.629 292.962H206.237C206.314 293.384 206.466 293.709 206.694 293.937C207.052 294.289 207.614 294.465 208.382 294.465C209.595 294.465 210.389 294.037 210.764 293.181C210.986 292.677 211.089 291.778 211.071 290.483C210.755 290.964 210.374 291.321 209.929 291.555C209.484 291.79 208.895 291.907 208.162 291.907C207.143 291.907 206.249 291.547 205.482 290.826C204.72 290.099 204.339 288.901 204.339 287.231C204.339 285.655 204.723 284.425 205.49 283.54C206.264 282.655 207.195 282.213 208.285 282.213ZM211.133 287.047C211.133 285.881 210.893 285.016 210.412 284.454C209.932 283.891 209.319 283.61 208.575 283.61C207.462 283.61 206.7 284.132 206.29 285.175C206.073 285.731 205.965 286.461 205.965 287.363C205.965 288.424 206.179 289.232 206.607 289.789C207.04 290.34 207.62 290.615 208.347 290.615C209.484 290.615 210.283 290.102 210.746 289.077C211.004 288.497 211.133 287.82 211.133 287.047ZM216.846 278.574C216.94 278.955 217.077 279.242 217.259 279.435C217.587 279.781 218.097 279.954 218.788 279.954C219.427 279.954 219.904 279.781 220.221 279.435C220.402 279.236 220.54 278.949 220.634 278.574H221.504C221.387 279.435 221.082 280.056 220.59 280.437C220.104 280.818 219.444 281.009 218.612 281.009C217.575 281.009 216.831 280.66 216.38 279.963C216.146 279.599 216.002 279.136 215.949 278.574H216.846ZM217.883 290.764C218.44 290.764 218.979 290.635 219.5 290.378C220.379 289.95 220.818 289.25 220.818 288.277V287.003C220.625 287.126 220.376 287.228 220.071 287.31C219.767 287.392 219.468 287.451 219.175 287.486L218.217 287.609C217.643 287.685 217.212 287.805 216.925 287.969C216.439 288.245 216.195 288.684 216.195 289.288C216.195 289.745 216.362 290.105 216.696 290.369C217.03 290.633 217.426 290.764 217.883 290.764ZM220.027 286.089C220.391 286.042 220.634 285.889 220.757 285.632C220.827 285.491 220.862 285.289 220.862 285.025C220.862 284.486 220.669 284.096 220.282 283.856C219.901 283.61 219.354 283.487 218.639 283.487C217.813 283.487 217.227 283.71 216.881 284.155C216.688 284.401 216.562 284.767 216.503 285.254H215.026C215.056 284.094 215.431 283.288 216.151 282.837C216.878 282.38 217.719 282.151 218.674 282.151C219.781 282.151 220.681 282.362 221.372 282.784C222.058 283.206 222.401 283.862 222.401 284.753V290.176C222.401 290.34 222.433 290.471 222.497 290.571C222.568 290.671 222.711 290.72 222.928 290.72C222.998 290.72 223.077 290.718 223.165 290.712C223.253 290.7 223.347 290.685 223.446 290.668V291.837C223.2 291.907 223.013 291.951 222.884 291.969C222.755 291.986 222.579 291.995 222.357 291.995C221.812 291.995 221.416 291.802 221.17 291.415C221.041 291.21 220.95 290.92 220.898 290.545C220.575 290.967 220.112 291.333 219.509 291.643C218.905 291.954 218.24 292.109 217.514 292.109C216.641 292.109 215.926 291.845 215.369 291.318C214.818 290.785 214.543 290.12 214.543 289.323C214.543 288.45 214.816 287.773 215.36 287.293C215.905 286.812 216.62 286.516 217.505 286.405L220.027 286.089ZM225.943 288.84C225.989 289.367 226.121 289.771 226.338 290.052C226.736 290.562 227.428 290.817 228.412 290.817C228.998 290.817 229.514 290.691 229.959 290.439C230.404 290.181 230.627 289.786 230.627 289.253C230.627 288.848 230.448 288.541 230.091 288.33C229.862 288.201 229.411 288.052 228.737 287.882L227.481 287.565C226.678 287.366 226.086 287.143 225.705 286.897C225.026 286.469 224.686 285.878 224.686 285.122C224.686 284.231 225.005 283.51 225.644 282.96C226.288 282.409 227.152 282.134 228.236 282.134C229.654 282.134 230.677 282.55 231.304 283.382C231.696 283.909 231.887 284.477 231.875 285.087H230.381C230.352 284.729 230.226 284.404 230.003 284.111C229.64 283.695 229.01 283.487 228.113 283.487C227.516 283.487 227.062 283.601 226.751 283.83C226.446 284.058 226.294 284.36 226.294 284.735C226.294 285.145 226.496 285.473 226.901 285.719C227.135 285.866 227.481 285.995 227.938 286.106L228.984 286.361C230.12 286.636 230.882 286.903 231.269 287.161C231.884 287.565 232.192 288.201 232.192 289.068C232.192 289.906 231.872 290.63 231.234 291.239C230.601 291.848 229.634 292.153 228.333 292.153C226.933 292.153 225.94 291.837 225.354 291.204C224.774 290.565 224.463 289.777 224.422 288.84H225.943ZM234.002 282.424H235.61V291.793H234.002V282.424ZM234.002 278.882H235.61V280.675H234.002V278.882ZM238.326 279.752H239.926V282.38H241.429V283.672H239.926V289.815C239.926 290.143 240.037 290.363 240.26 290.474C240.383 290.539 240.588 290.571 240.875 290.571C240.951 290.571 241.033 290.571 241.121 290.571C241.209 290.565 241.312 290.556 241.429 290.545V291.793C241.247 291.845 241.057 291.884 240.858 291.907C240.664 291.93 240.453 291.942 240.225 291.942C239.486 291.942 238.985 291.755 238.722 291.38C238.458 290.999 238.326 290.507 238.326 289.903V283.672H237.052V282.38H238.326V279.752ZM252.002 290.729C252.74 290.729 253.353 290.422 253.839 289.806C254.331 289.185 254.577 288.26 254.577 287.029C254.577 286.279 254.469 285.635 254.252 285.095C253.842 284.058 253.092 283.54 252.002 283.54C250.906 283.54 250.156 284.088 249.752 285.183C249.535 285.769 249.427 286.513 249.427 287.416C249.427 288.142 249.535 288.76 249.752 289.27C250.162 290.243 250.912 290.729 252.002 290.729ZM247.906 282.424H249.444V283.672C249.761 283.244 250.107 282.913 250.482 282.678C251.015 282.327 251.642 282.151 252.362 282.151C253.429 282.151 254.334 282.561 255.078 283.382C255.822 284.196 256.194 285.362 256.194 286.88C256.194 288.93 255.658 290.395 254.586 291.274C253.906 291.831 253.115 292.109 252.213 292.109C251.504 292.109 250.909 291.954 250.429 291.643C250.148 291.468 249.834 291.166 249.488 290.738V295.546H247.906V282.424ZM259.262 289.288C259.262 289.745 259.429 290.105 259.763 290.369C260.097 290.633 260.492 290.764 260.949 290.764C261.506 290.764 262.045 290.635 262.567 290.378C263.445 289.95 263.885 289.25 263.885 288.277V287.003C263.692 287.126 263.443 287.228 263.138 287.31C262.833 287.392 262.534 287.451 262.241 287.486L261.283 287.609C260.709 287.685 260.278 287.805 259.991 287.969C259.505 288.245 259.262 288.684 259.262 289.288ZM263.094 286.089C263.457 286.042 263.7 285.889 263.823 285.632C263.894 285.491 263.929 285.289 263.929 285.025C263.929 284.486 263.735 284.096 263.349 283.856C262.968 283.61 262.42 283.487 261.705 283.487C260.879 283.487 260.293 283.71 259.947 284.155C259.754 284.401 259.628 284.767 259.569 285.254H258.093C258.122 284.094 258.497 283.288 259.218 282.837C259.944 282.38 260.785 282.151 261.74 282.151C262.848 282.151 263.747 282.362 264.439 282.784C265.124 283.206 265.467 283.862 265.467 284.753V290.176C265.467 290.34 265.499 290.471 265.564 290.571C265.634 290.671 265.777 290.72 265.994 290.72C266.065 290.72 266.144 290.718 266.232 290.712C266.319 290.7 266.413 290.685 266.513 290.668V291.837C266.267 291.907 266.079 291.951 265.95 291.969C265.821 291.986 265.646 291.995 265.423 291.995C264.878 291.995 264.483 291.802 264.236 291.415C264.108 291.21 264.017 290.92 263.964 290.545C263.642 290.967 263.179 291.333 262.575 291.643C261.972 291.954 261.307 292.109 260.58 292.109C259.707 292.109 258.992 291.845 258.436 291.318C257.885 290.785 257.609 290.12 257.609 289.323C257.609 288.45 257.882 287.773 258.427 287.293C258.972 286.812 259.687 286.516 260.571 286.405L263.094 286.089ZM271.391 282.213C272.129 282.213 272.774 282.394 273.324 282.758C273.623 282.963 273.928 283.261 274.238 283.654V282.468H275.697V291.028C275.697 292.223 275.522 293.167 275.17 293.858C274.514 295.135 273.275 295.774 271.452 295.774C270.439 295.774 269.586 295.546 268.895 295.089C268.203 294.637 267.817 293.928 267.734 292.962H269.343C269.419 293.384 269.571 293.709 269.8 293.937C270.157 294.289 270.72 294.465 271.487 294.465C272.7 294.465 273.494 294.037 273.869 293.181C274.092 292.677 274.194 291.778 274.177 290.483C273.86 290.964 273.48 291.321 273.034 291.555C272.589 291.79 272 291.907 271.268 291.907C270.248 291.907 269.355 291.547 268.587 290.826C267.825 290.099 267.444 288.901 267.444 287.231C267.444 285.655 267.828 284.425 268.596 283.54C269.369 282.655 270.301 282.213 271.391 282.213ZM274.238 287.047C274.238 285.881 273.998 285.016 273.518 284.454C273.037 283.891 272.425 283.61 271.681 283.61C270.568 283.61 269.806 284.132 269.396 285.175C269.179 285.731 269.07 286.461 269.07 287.363C269.07 288.424 269.284 289.232 269.712 289.789C270.146 290.34 270.726 290.615 271.452 290.615C272.589 290.615 273.389 290.102 273.852 289.077C274.109 288.497 274.238 287.82 274.238 287.047ZM278.088 282.424H279.696V291.793H278.088V282.424ZM278.088 278.882H279.696V280.675H278.088V278.882ZM282.096 282.38H283.599V283.716C284.044 283.165 284.516 282.769 285.014 282.529C285.512 282.289 286.066 282.169 286.675 282.169C288.011 282.169 288.913 282.635 289.382 283.566C289.64 284.076 289.769 284.805 289.769 285.755V291.793H288.16V285.86C288.16 285.286 288.075 284.823 287.905 284.471C287.624 283.885 287.114 283.593 286.376 283.593C286.001 283.593 285.693 283.631 285.453 283.707C285.02 283.836 284.639 284.094 284.311 284.48C284.047 284.791 283.874 285.113 283.792 285.447C283.716 285.775 283.678 286.247 283.678 286.862V291.793H282.096V282.38ZM293.328 289.288C293.328 289.745 293.495 290.105 293.829 290.369C294.163 290.633 294.559 290.764 295.016 290.764C295.572 290.764 296.111 290.635 296.633 290.378C297.512 289.95 297.951 289.25 297.951 288.277V287.003C297.758 287.126 297.509 287.228 297.204 287.31C296.9 287.392 296.601 287.451 296.308 287.486L295.35 287.609C294.776 287.685 294.345 287.805 294.058 287.969C293.571 288.245 293.328 288.684 293.328 289.288ZM297.16 286.089C297.524 286.042 297.767 285.889 297.89 285.632C297.96 285.491 297.995 285.289 297.995 285.025C297.995 284.486 297.802 284.096 297.415 283.856C297.034 283.61 296.486 283.487 295.772 283.487C294.945 283.487 294.359 283.71 294.014 284.155C293.82 284.401 293.694 284.767 293.636 285.254H292.159C292.189 284.094 292.564 283.288 293.284 282.837C294.011 282.38 294.852 282.151 295.807 282.151C296.914 282.151 297.814 282.362 298.505 282.784C299.191 283.206 299.533 283.862 299.533 284.753V290.176C299.533 290.34 299.566 290.471 299.63 290.571C299.7 290.671 299.844 290.72 300.061 290.72C300.131 290.72 300.21 290.718 300.298 290.712C300.386 290.7 300.48 290.685 300.579 290.668V291.837C300.333 291.907 300.146 291.951 300.017 291.969C299.888 291.986 299.712 291.995 299.489 291.995C298.944 291.995 298.549 291.802 298.303 291.415C298.174 291.21 298.083 290.92 298.03 290.545C297.708 290.967 297.245 291.333 296.642 291.643C296.038 291.954 295.373 292.109 294.647 292.109C293.774 292.109 293.059 291.845 292.502 291.318C291.951 290.785 291.676 290.12 291.676 289.323C291.676 288.45 291.948 287.773 292.493 287.293C293.038 286.812 293.753 286.516 294.638 286.405L297.16 286.089ZM169.402 311.729C170.141 311.729 170.753 311.422 171.239 310.806C171.732 310.185 171.978 309.26 171.978 308.029C171.978 307.279 171.869 306.635 171.652 306.095C171.242 305.058 170.492 304.54 169.402 304.54C168.307 304.54 167.557 305.088 167.152 306.183C166.936 306.769 166.827 307.513 166.827 308.416C166.827 309.142 166.936 309.76 167.152 310.27C167.563 311.243 168.313 311.729 169.402 311.729ZM165.307 303.424H166.845V304.672C167.161 304.244 167.507 303.913 167.882 303.678C168.415 303.327 169.042 303.151 169.763 303.151C170.829 303.151 171.734 303.561 172.479 304.382C173.223 305.196 173.595 306.362 173.595 307.88C173.595 309.93 173.059 311.395 171.986 312.274C171.307 312.831 170.516 313.109 169.613 313.109C168.904 313.109 168.31 312.954 167.829 312.643C167.548 312.468 167.234 312.166 166.889 311.738V316.546H165.307V303.424ZM179.369 303.169C180.037 303.169 180.685 303.327 181.312 303.643C181.939 303.954 182.416 304.358 182.744 304.856C183.061 305.331 183.272 305.885 183.377 306.517C183.471 306.951 183.518 307.642 183.518 308.592H176.618C176.648 309.547 176.873 310.314 177.295 310.894C177.717 311.469 178.37 311.756 179.255 311.756C180.081 311.756 180.74 311.483 181.233 310.938C181.514 310.622 181.713 310.256 181.83 309.84H183.386C183.345 310.185 183.207 310.572 182.973 311C182.744 311.422 182.486 311.767 182.199 312.037C181.719 312.506 181.124 312.822 180.415 312.986C180.034 313.08 179.604 313.127 179.123 313.127C177.951 313.127 176.958 312.702 176.144 311.852C175.329 310.997 174.922 309.802 174.922 308.266C174.922 306.755 175.332 305.527 176.152 304.584C176.973 303.64 178.045 303.169 179.369 303.169ZM181.892 307.335C181.827 306.649 181.678 306.101 181.443 305.691C181.01 304.929 180.286 304.549 179.273 304.549C178.546 304.549 177.937 304.812 177.444 305.34C176.952 305.861 176.692 306.526 176.662 307.335H181.892ZM194.109 303.107C195.169 303.107 196.03 303.365 196.693 303.881C197.36 304.396 197.762 305.284 197.897 306.544H196.359C196.265 305.964 196.051 305.483 195.717 305.102C195.383 304.716 194.847 304.522 194.109 304.522C193.101 304.522 192.38 305.014 191.946 305.999C191.665 306.637 191.525 307.426 191.525 308.363C191.525 309.306 191.724 310.1 192.122 310.745C192.521 311.389 193.148 311.712 194.003 311.712C194.659 311.712 195.178 311.512 195.559 311.114C195.945 310.71 196.212 310.159 196.359 309.462H197.897C197.721 310.71 197.281 311.624 196.578 312.204C195.875 312.778 194.976 313.065 193.88 313.065C192.65 313.065 191.668 312.617 190.936 311.72C190.203 310.818 189.837 309.693 189.837 308.345C189.837 306.693 190.238 305.407 191.041 304.487C191.844 303.567 192.866 303.107 194.109 303.107ZM200.692 310.288C200.692 310.745 200.859 311.105 201.193 311.369C201.526 311.633 201.922 311.764 202.379 311.764C202.936 311.764 203.475 311.635 203.996 311.378C204.875 310.95 205.315 310.25 205.315 309.277V308.003C205.121 308.126 204.872 308.228 204.568 308.31C204.263 308.392 203.964 308.451 203.671 308.486L202.713 308.609C202.139 308.685 201.708 308.805 201.421 308.969C200.935 309.245 200.692 309.684 200.692 310.288ZM204.524 307.089C204.887 307.042 205.13 306.889 205.253 306.632C205.323 306.491 205.359 306.289 205.359 306.025C205.359 305.486 205.165 305.096 204.778 304.856C204.398 304.61 203.85 304.487 203.135 304.487C202.309 304.487 201.723 304.71 201.377 305.155C201.184 305.401 201.058 305.767 200.999 306.254H199.523C199.552 305.094 199.927 304.288 200.648 303.837C201.374 303.38 202.215 303.151 203.17 303.151C204.277 303.151 205.177 303.362 205.868 303.784C206.554 304.206 206.897 304.862 206.897 305.753V311.176C206.897 311.34 206.929 311.471 206.993 311.571C207.064 311.671 207.207 311.72 207.424 311.72C207.494 311.72 207.573 311.718 207.661 311.712C207.749 311.7 207.843 311.685 207.943 311.668V312.837C207.696 312.907 207.509 312.951 207.38 312.969C207.251 312.986 207.075 312.995 206.853 312.995C206.308 312.995 205.912 312.802 205.666 312.415C205.537 312.21 205.446 311.92 205.394 311.545C205.071 311.967 204.609 312.333 204.005 312.643C203.401 312.954 202.736 313.109 202.01 313.109C201.137 313.109 200.422 312.845 199.865 312.318C199.315 311.785 199.039 311.12 199.039 310.323C199.039 309.45 199.312 308.773 199.857 308.293C200.401 307.812 201.116 307.516 202.001 307.405L204.524 307.089ZM209.542 303.38H211.045V305.006C211.168 304.689 211.47 304.305 211.95 303.854C212.431 303.397 212.984 303.169 213.611 303.169C213.641 303.169 213.691 303.172 213.761 303.177C213.831 303.183 213.951 303.195 214.121 303.213V304.883C214.027 304.865 213.94 304.853 213.858 304.847C213.781 304.842 213.696 304.839 213.603 304.839C212.806 304.839 212.193 305.096 211.766 305.612C211.338 306.122 211.124 306.711 211.124 307.379V312.793H209.542V303.38ZM219.412 303.169C220.08 303.169 220.728 303.327 221.355 303.643C221.982 303.954 222.459 304.358 222.787 304.856C223.104 305.331 223.315 305.885 223.42 306.517C223.514 306.951 223.561 307.642 223.561 308.592H216.661C216.691 309.547 216.916 310.314 217.338 310.894C217.76 311.469 218.413 311.756 219.298 311.756C220.124 311.756 220.783 311.483 221.276 310.938C221.557 310.622 221.756 310.256 221.873 309.84H223.429C223.388 310.185 223.25 310.572 223.016 311C222.787 311.422 222.529 311.767 222.242 312.037C221.762 312.506 221.167 312.822 220.458 312.986C220.077 313.08 219.647 313.127 219.166 313.127C217.994 313.127 217.001 312.702 216.187 311.852C215.372 310.997 214.965 309.802 214.965 308.266C214.965 306.755 215.375 305.527 216.195 304.584C217.016 303.64 218.088 303.169 219.412 303.169ZM221.935 307.335C221.87 306.649 221.721 306.101 221.486 305.691C221.053 304.929 220.329 304.549 219.316 304.549C218.589 304.549 217.98 304.812 217.487 305.34C216.995 305.861 216.734 306.526 216.705 307.335H221.935ZM234.257 311.773C235.306 311.773 236.024 311.378 236.41 310.587C236.803 309.79 236.999 308.905 236.999 307.932C236.999 307.053 236.859 306.339 236.577 305.788C236.132 304.921 235.364 304.487 234.275 304.487C233.308 304.487 232.605 304.856 232.165 305.594C231.726 306.333 231.506 307.223 231.506 308.266C231.506 309.268 231.726 310.103 232.165 310.771C232.605 311.439 233.302 311.773 234.257 311.773ZM234.318 303.107C235.531 303.107 236.557 303.511 237.395 304.32C238.233 305.129 238.651 306.318 238.651 307.888C238.651 309.406 238.282 310.66 237.544 311.65C236.806 312.64 235.66 313.135 234.108 313.135C232.813 313.135 231.784 312.699 231.023 311.826C230.261 310.947 229.88 309.769 229.88 308.293C229.88 306.711 230.281 305.451 231.084 304.513C231.887 303.576 232.965 303.107 234.318 303.107ZM249.181 303.107C250.241 303.107 251.103 303.365 251.765 303.881C252.433 304.396 252.834 305.284 252.969 306.544H251.431C251.337 305.964 251.123 305.483 250.789 305.102C250.455 304.716 249.919 304.522 249.181 304.522C248.173 304.522 247.452 305.014 247.019 305.999C246.737 306.637 246.597 307.426 246.597 308.363C246.597 309.306 246.796 310.1 247.194 310.745C247.593 311.389 248.22 311.712 249.075 311.712C249.732 311.712 250.25 311.512 250.631 311.114C251.018 310.71 251.284 310.159 251.431 309.462H252.969C252.793 310.71 252.354 311.624 251.651 312.204C250.947 312.778 250.048 313.065 248.952 313.065C247.722 313.065 246.74 312.617 246.008 311.72C245.276 310.818 244.909 309.693 244.909 308.345C244.909 306.693 245.311 305.407 246.113 304.487C246.916 303.567 247.939 303.107 249.181 303.107ZM255.764 310.288C255.764 310.745 255.931 311.105 256.265 311.369C256.599 311.633 256.994 311.764 257.451 311.764C258.008 311.764 258.547 311.635 259.068 311.378C259.947 310.95 260.387 310.25 260.387 309.277V308.003C260.193 308.126 259.944 308.228 259.64 308.31C259.335 308.392 259.036 308.451 258.743 308.486L257.785 308.609C257.211 308.685 256.78 308.805 256.493 308.969C256.007 309.245 255.764 309.684 255.764 310.288ZM259.596 307.089C259.959 307.042 260.202 306.889 260.325 306.632C260.396 306.491 260.431 306.289 260.431 306.025C260.431 305.486 260.237 305.096 259.851 304.856C259.47 304.61 258.922 304.487 258.207 304.487C257.381 304.487 256.795 304.71 256.449 305.155C256.256 305.401 256.13 305.767 256.071 306.254H254.595C254.624 305.094 254.999 304.288 255.72 303.837C256.446 303.38 257.287 303.151 258.242 303.151C259.35 303.151 260.249 303.362 260.941 303.784C261.626 304.206 261.969 304.862 261.969 305.753V311.176C261.969 311.34 262.001 311.471 262.066 311.571C262.136 311.671 262.279 311.72 262.496 311.72C262.567 311.72 262.646 311.718 262.734 311.712C262.821 311.7 262.915 311.685 263.015 311.668V312.837C262.769 312.907 262.581 312.951 262.452 312.969C262.323 312.986 262.148 312.995 261.925 312.995C261.38 312.995 260.984 312.802 260.738 312.415C260.609 312.21 260.519 311.92 260.466 311.545C260.144 311.967 259.681 312.333 259.077 312.643C258.474 312.954 257.809 313.109 257.082 313.109C256.209 313.109 255.494 312.845 254.938 312.318C254.387 311.785 254.111 311.12 254.111 310.323C254.111 309.45 254.384 308.773 254.929 308.293C255.474 307.812 256.189 307.516 257.073 307.405L259.596 307.089ZM266.152 303.38V309.629C266.152 310.109 266.229 310.502 266.381 310.806C266.662 311.369 267.187 311.65 267.954 311.65C269.056 311.65 269.806 311.158 270.204 310.174C270.421 309.646 270.529 308.923 270.529 308.003V303.38H272.111V312.793H270.617L270.635 311.404C270.43 311.761 270.175 312.063 269.87 312.309C269.267 312.802 268.534 313.048 267.673 313.048C266.331 313.048 265.417 312.599 264.931 311.703C264.667 311.222 264.535 310.581 264.535 309.778V303.38H266.152ZM274.906 300.752H276.506V303.38H278.009V304.672H276.506V310.815C276.506 311.143 276.617 311.363 276.84 311.474C276.963 311.539 277.168 311.571 277.455 311.571C277.531 311.571 277.613 311.571 277.701 311.571C277.789 311.565 277.892 311.556 278.009 311.545V312.793C277.827 312.845 277.637 312.884 277.438 312.907C277.244 312.93 277.033 312.942 276.805 312.942C276.067 312.942 275.566 312.755 275.302 312.38C275.038 311.999 274.906 311.507 274.906 310.903V304.672H273.632V303.38H274.906V300.752ZM275.065 317.126C275.387 317.067 275.612 316.839 275.741 316.44C275.812 316.235 275.847 316.033 275.847 315.834C275.847 315.799 275.847 315.769 275.847 315.746C275.847 315.722 275.841 315.693 275.829 315.658H275.065V314.129H276.568V315.544C276.568 316.1 276.453 316.59 276.225 317.011C276.002 317.433 275.615 317.694 275.065 317.794V317.126ZM279.6 303.424H281.208V312.793H279.6V303.424ZM279.6 299.882H281.208V301.675H279.6V299.882Z" fill="#FEF4F8"/>
</svg>
