<?xml version="1.0" standalone="no"?>
<!DOCTYPE svg PUBLIC "-//W3C//DTD SVG 20010904//EN"
 "http://www.w3.org/TR/2001/REC-SVG-20010904/DTD/svg10.dtd">
<svg version="1.0" xmlns="http://www.w3.org/2000/svg"
 width="177.000000pt" height="177.000000pt" viewBox="0 0 177.000000 177.000000"
 preserveAspectRatio="xMidYMid meet">
<metadata>
Created by potrace 1.11, written by Peter Selinger 2001-2013
</metadata>
<g transform="translate(0.000000,177.000000) scale(0.100000,-0.100000)"
fill="#000000" stroke="none">
<path d="M1270 1591 l0 -79 -36 -7 c-25 -4 -57 -25 -103 -68 -36 -34 -108 -87
-160 -117 -145 -85 -321 -283 -321 -360 0 -20 -13 -40 -49 -72 -26 -24 -65
-68 -86 -96 l-37 -53 31 6 c46 8 50 -17 10 -62 -57 -66 -163 -184 -199 -223
-102 -108 -119 -135 -124 -194 l-4 -57 29 3 c17 2 33 -3 38 -10 6 -10 15 -9
42 6 19 11 57 25 84 32 64 15 90 37 156 135 29 44 60 88 69 97 9 10 35 56 58
102 36 72 50 89 90 114 78 47 95 53 174 54 63 1 111 -21 102 -47 -5 -12 1 -11
36 2 26 11 37 19 28 22 -34 14 -58 39 -52 55 3 9 10 16 16 16 13 0 137 82 168
112 14 12 47 58 73 101 36 59 49 91 51 126 5 72 12 85 61 115 25 16 50 35 56
42 8 9 34 14 78 14 l66 0 -47 27 c-40 22 -51 35 -75 92 -21 50 -48 87 -117
158 -48 51 -92 93 -97 93 -5 0 -9 -35 -9 -79z"/>
</g>
</svg>
