<?xml version="1.0" standalone="no"?>
<!DOCTYPE svg PUBLIC "-//W3C//DTD SVG 20010904//EN"
 "http://www.w3.org/TR/2001/REC-SVG-20010904/DTD/svg10.dtd">
<svg version="1.0" xmlns="http://www.w3.org/2000/svg"
 width="180.000000pt" height="180.000000pt" viewBox="0 0 180.000000 180.000000"
 preserveAspectRatio="xMidYMid meet">
<metadata>
Created by potrace 1.11, written by Peter Selinger 2001-2013
</metadata>
<g transform="translate(0.000000,180.000000) scale(0.100000,-0.100000)"
fill="#000000" stroke="none">
<path d="M915 1515 c-21 -9 -50 -25 -63 -38 -23 -21 -54 -72 -51 -82 1 -2 5
-25 9 -50 8 -52 4 -58 -67 -85 l-48 -19 65 1 c93 0 136 -10 165 -39 30 -31 31
-63 5 -120 -42 -94 -107 -168 -324 -372 l-79 -74 39 7 c116 22 276 111 358
200 65 70 100 197 76 271 -7 20 -31 59 -55 85 -50 56 -59 79 -51 125 12 62 77
105 166 110 61 3 171 -41 244 -99 l40 -31 -20 34 c-30 52 -125 145 -169 166
-53 25 -185 30 -240 10z"/>
<path d="M966 1355 c-19 -20 -20 -26 -3 -49 26 -36 84 4 61 42 -15 23 -38 26
-58 7z"/>
<path d="M1244 1193 c39 -77 44 -212 12 -319 -32 -105 -143 -240 -263 -320
-28 -19 -59 -37 -67 -40 -9 -3 -16 -10 -16 -15 0 -4 18 -2 41 6 146 52 293
175 354 295 29 60 37 93 36 165 -1 93 -13 132 -64 207 -35 52 -56 65 -33 21z"/>
<path d="M1030 759 c-107 -71 -205 -109 -350 -135 l-85 -16 -33 -55 c-17 -30
-32 -59 -32 -64 0 -17 137 14 253 58 94 35 155 83 276 216 30 34 27 33 -29 -4z"/>
<path d="M760 460 c-52 -13 -125 -46 -173 -79 -49 -33 -120 -101 -114 -108 3
-2 68 15 146 38 134 40 142 44 163 78 12 20 28 46 36 59 13 20 13 22 -4 21
-11 -1 -35 -5 -54 -9z"/>
</g>
</svg>
