<svg xmlns="http://www.w3.org/2000/svg" width="864" height="293" fill="none" viewBox="0 0 864 293"><g id="Group 2"><g id="Group 1"><g id="Vector 1"><path fill="#4267B2" d="M174 14.526C189 26.526 205.5 53.026 205.5 53.026L189 39.526C189 39.526 180.222 33.7995 174 31.026C166.778 27.8065 162.727 25.7045 155 24.026C143.17 21.4563 135.462 20.1292 124 24.026C116.2 26.6778 111.111 28.565 106 35.026C102.531 39.4113 101.014 42.5274 100 48.026C99.2561 52.0585 99.5 58.526 99.5 58.526C99.5 58.526 102.904 65.2101 106 69.526C111.558 77.2725 117.879 80.4121 122 89.526C128.042 102.889 128.505 110.242 124 127.026C116.979 153.18 102.269 164.92 80.5 181.026C58.2302 197.503 14.5 207.026 14.5 207.026L75.5828 149.526C105.601 116.758 129.363 80.1549 98.5 69.526C81.13 63.544 51.5 67.526 51.5 67.526C51.5 67.526 77 58.026 80.5 55.526C84 53.026 80 39.026 80 39.026C80 39.026 78.6333 31.1037 80.5 26.526C82.4028 21.86 83.5701 19.2177 87 15.526C92.1101 10.0261 94.0208 9.31351 98.5 6.52604C100.577 5.23334 102.24 4.9625 104.5 4.02604C107.3 2.8658 109.033 2.14908 112 1.52603C118.713 0.116203 122.142 -0.0854851 129 0.0260322C147.345 0.324323 159 2.52602 174 14.526Z"/><path fill="#4267B2" d="M197 96.526C191.608 83.748 176.5 67.526 176.5 67.526C176.5 67.526 183.358 81.7479 185.5 91.526C187.429 100.333 187.368 105.511 187.5 114.526C187.718 129.446 187.969 138.289 183.5 152.526C179.76 164.44 175.898 170.617 169 181.026C158.775 196.455 150.645 203.588 136.5 215.526C122.511 227.332 97.5 241.526 97.5 241.526C97.5 241.526 116.601 236.038 128 230.526C140.485 224.489 147.154 220.167 158 211.526C170.961 201.2 178.191 194.735 187.5 181.026L187.659 180.792C193.402 172.335 196.808 167.319 200 157.526C203.715 146.127 204.058 139.002 203.5 127.026C202.933 114.861 201.735 107.746 197 96.526Z"/></g><path id="Vector 2" fill="#4267B2" d="M13.5 243.026L31.5 212.526C31.5 212.526 61.5 209.026 87.5 200.526C113.5 192.026 145 169.526 145 169.526C145 169.526 118.708 201.282 98.5 215.026C69.6009 234.68 13.5 243.026 13.5 243.026Z"/><path id="Vector 3" fill="#4267B2" d="M15.5 276.026C8.85555 281.642 0 292.026 0 292.026C0 292.026 49.2079 291.91 69 272.026C78.0968 262.887 86.5 244.026 86.5 244.026C86.5 244.026 67.0096 246.765 55.5 251.526C47.2631 254.933 42.6131 256.889 35 261.526C26.9518 266.428 22.6972 269.943 15.5 276.026Z"/><circle id="Ellipse 1" cx="123" cy="46.526" r="9" fill="#4267B2"/></g><g id="JAY SOFTWARE"><path fill="#4267B2" d="M301.734 46.8125V93.6406C301.734 99.2344 301.344 103.406 300.562 106.156C299.781 109.281 298.453 111.922 296.578 114.078C292.922 118.359 288.078 120.5 282.047 120.5C277.484 120.5 273.219 119.312 269.25 116.938L274.594 107.609C277.25 109.391 279.734 110.281 282.047 110.281C285.297 110.281 287.547 109.047 288.797 106.578C290.109 104.109 290.766 99.7969 290.766 93.6406V46.8125H301.734Z"/><path fill="#4267B2" d="M380.764 102.922H349.779L341.717 120.5H329.951L365.764 43.5781L400.311 120.5H388.357L380.764 102.922ZM376.311 92.6562L365.576 68.0469L354.326 92.6562H376.311Z"/><path fill="#4267B2" d="M443.359 89.2344L419.734 48.125H432.297L448.844 77.0469L465.438 48.125H478L454.281 89.2344V120.5H443.359V89.2344Z"/><path fill="#4267B2" d="M310.547 179.234L301.688 184.484C300.031 181.609 298.453 179.734 296.953 178.859C295.391 177.859 293.375 177.359 290.906 177.359C287.875 177.359 285.359 178.219 283.359 179.938C281.359 181.625 280.359 183.75 280.359 186.312C280.359 189.844 282.984 192.688 288.234 194.844L295.453 197.797C301.328 200.172 305.625 203.078 308.344 206.516C311.062 209.922 312.422 214.109 312.422 219.078C312.422 225.734 310.203 231.234 305.766 235.578C301.297 239.953 295.75 242.141 289.125 242.141C282.844 242.141 277.656 240.281 273.562 236.562C269.531 232.844 267.016 227.609 266.016 220.859L277.078 218.422C277.578 222.672 278.453 225.609 279.703 227.234C281.953 230.359 285.234 231.922 289.547 231.922C292.953 231.922 295.781 230.781 298.031 228.5C300.281 226.219 301.406 223.328 301.406 219.828C301.406 218.422 301.203 217.141 300.797 215.984C300.422 214.797 299.812 213.719 298.969 212.75C298.156 211.75 297.094 210.828 295.781 209.984C294.469 209.109 292.906 208.281 291.094 207.5L284.109 204.594C274.203 200.406 269.25 194.281 269.25 186.219C269.25 180.781 271.328 176.234 275.484 172.578C279.641 168.891 284.812 167.047 291 167.047C299.344 167.047 305.859 171.109 310.547 179.234Z"/><path fill="#4267B2" d="M329.951 202.484C329.951 192.297 333.686 183.547 341.154 176.234C348.592 168.922 357.529 165.266 367.967 165.266C378.279 165.266 387.123 168.953 394.498 176.328C401.904 183.703 405.607 192.562 405.607 202.906C405.607 213.312 401.889 222.141 394.451 229.391C386.982 236.672 377.967 240.312 367.404 240.312C358.061 240.312 349.67 237.078 342.232 230.609C334.045 223.453 329.951 214.078 329.951 202.484ZM340.967 202.625C340.967 210.625 343.654 217.203 349.029 222.359C354.373 227.516 360.545 230.094 367.545 230.094C375.139 230.094 381.545 227.469 386.764 222.219C391.982 216.906 394.592 210.438 394.592 202.812C394.592 195.094 392.014 188.625 386.857 183.406C381.732 178.156 375.389 175.531 367.826 175.531C360.295 175.531 353.936 178.156 348.748 183.406C343.561 188.594 340.967 195 340.967 202.625Z"/><path fill="#4267B2" d="M465.981 181.859H440.762V199.25H465.09V209.516H440.762V243.969H429.84V171.594H465.981V181.859Z"/><path fill="#4267B2" d="M512.573 181.859V243.969H501.651V181.859H485.01V171.594H529.166V181.859H512.573Z"/><path fill="#4267B2" d="M560.711 171.594L579.555 219.969L599.242 168.078L618.086 219.969L638.102 171.594H649.961L617.617 248.562L599.008 197.281L579.602 248.609L548.852 171.594H560.711Z"/><path fill="#4267B2" d="M709.209 226.391H678.225L670.163 243.969H658.397L694.209 167.047L728.756 243.969H716.803L709.209 226.391ZM704.756 216.125L694.022 191.516L682.772 216.125H704.756Z"/><path fill="#4267B2" d="M776.286 213.125L798.692 243.969H785.333L764.661 214.344H762.692V243.969H751.77V171.594H764.567C774.129 171.594 781.036 173.391 785.286 176.984C789.973 180.984 792.317 186.266 792.317 192.828C792.317 197.953 790.848 202.359 787.911 206.047C784.973 209.734 781.098 212.094 776.286 213.125ZM762.692 204.828H766.161C776.504 204.828 781.676 200.875 781.676 192.969C781.676 185.562 776.645 181.859 766.583 181.859H762.692V204.828Z"/><path fill="#4267B2" d="M863.471 181.859H834.456V199.25H862.628V209.516H834.456V233.703H863.471V243.969H823.534V171.594H863.471V181.859Z"/></g></g></svg>