<svg xmlns="http://www.w3.org/2000/svg" xmlns:xlink="http://www.w3.org/1999/xlink" id="Layer_1" x="0" y="0" version="1.1" viewBox="0 0 3300 2550" xml:space="preserve" style="enable-background:new 0 0 3300 2550"><g><g><path d="M2238.1,1285.4c-43.7,46-104.9,72.2-167.9,72.2c-59.6,0-116.3-22.4-159.2-63.4c-92.7-88.1-96.5-234.8-8.7-327.5 c113.6-119.7,203.2-224.1,268.2-311.5c4.6-1.9,221.9-136.4,254.9-146.6c-3.8,23.2-18.6,70.7-71.8,153.9 c-69.5,108.3-183.5,246.6-339.3,410.7c-29.3,30.8-28.1,79.8,3,109c14.8,14.1,63.8,44.8,109-3c162.2-171,282.3-316.8,357.1-433.5 c39.9-62.7,161.8-253.4,53.6-362.1c-68.4-68.4-188.8-36.5-398.5,107.1c-146.6-91.9-315.7-142.5-492.7-142.5 c-247.3,0-480.2,96.5-655,271.3c-175.1,175.1-271.6,408-271.6,655.3c0,177,50.1,346.1,142.5,492.4 c-143.6,210.1-174.8,329.8-107.1,398.5c68,69.1,244.3,0,305.1-35c129.9-74.5,297.5-204.4,487.4-378.8v73.7 c0,42.5,34.6,77.1,77.1,77.1c42.5,0,77.1-34.6,77.1-77.1v-254.5c0-42.5-34.6-77.1-77.1-77.1h-254.5c-42.5,0-77.1,34.6-77.1,77.1 c0,42.5,34.6,77.5,77.5,77.5h61.9c-175.5,159.9-332.8,282.3-448.7,348.4c-47.5,27-79.4,40.3-100.3,46.7 c13.3-36.9,146.3-251.5,148.2-262.9c41-30,85.5-64.6,132.6-103.3c-16.3-31.5-25.5-67.6-25.5-105.6 c0-127.6,103.7-231.7,231.7-231.7h254.5c127.6,0,231.7,103.7,231.7,231.7v254.5c0,127.6-103.7,231.7-231.7,231.7 c-51.7,0-99.5-17.1-138.3-46c-58.1,49-113.2,92.3-165.3,131.1c102.6,38.4,212.4,58.5,324.8,58.5c247.3,0,480.2-96.5,655-271.3 c261-261,332.4-639.8,216.2-966.1C2443.6,1059.4,2350.5,1166.9,2238.1,1285.4L2238.1,1285.4z"/></g></g></svg>